<svg width="1471" height="2630" viewBox="0 0 1471 2630" fill="none" xmlns="http://www.w3.org/2000/svg">
<g clip-path="url(#clip0_4367_8462)">
<rect width="1471" height="2630" rx="12" transform="matrix(1 0 0 -1 0 2630)" fill="url(#paint0_linear_4367_8462)"/>
<g opacity="0.5">
<mask id="path-2-inside-1_4367_8462" fill="white">
<path d="M3160 3C3160 293.09 3096.82 580.34 2974.08 848.348C2851.33 1116.36 2671.42 1359.87 2444.61 1565C2217.8 1770.12 1948.54 1932.84 1652.2 2043.85C1355.87 2154.86 1038.25 2212 717.5 2212C396.746 2212 79.1333 2154.86 -217.204 2043.85C-513.542 1932.84 -782.801 1770.12 -1009.61 1565C-1236.42 1359.87 -1416.33 1116.36 -1539.08 848.348C-1661.82 580.339 -1725 293.09 -1725 2.99976L717.5 3H3160Z"/>
</mask>
<path d="M3160 3C3160 293.09 3096.82 580.34 2974.08 848.348C2851.33 1116.36 2671.42 1359.87 2444.61 1565C2217.8 1770.12 1948.54 1932.84 1652.2 2043.85C1355.87 2154.86 1038.25 2212 717.5 2212C396.746 2212 79.1333 2154.86 -217.204 2043.85C-513.542 1932.84 -782.801 1770.12 -1009.61 1565C-1236.42 1359.87 -1416.33 1116.36 -1539.08 848.348C-1661.82 580.339 -1725 293.09 -1725 2.99976L717.5 3H3160Z" fill="url(#paint1_radial_4367_8462)" fill-opacity="0.3" stroke="url(#paint2_linear_4367_8462)" stroke-opacity="0.5" stroke-width="2" mask="url(#path-2-inside-1_4367_8462)"/>
</g>
<g opacity="0.5">
<mask id="path-3-inside-2_4367_8462" fill="white">
<path d="M2368 -0.5C2368 193.397 2325.77 385.395 2243.73 564.532C2161.69 743.669 2041.44 906.438 1889.85 1043.54C1738.26 1180.65 1558.29 1289.41 1360.23 1363.61C1162.17 1437.81 949.883 1476 735.5 1476C521.117 1476 308.833 1437.81 110.769 1363.61C-87.2948 1289.41 -267.26 1180.65 -418.852 1043.54C-570.444 906.438 -690.693 743.669 -772.733 564.532C-854.774 385.395 -897 193.397 -897 -0.500122L735.5 -0.5H2368Z"/>
</mask>
<path d="M2368 -0.5C2368 193.397 2325.77 385.395 2243.73 564.532C2161.69 743.669 2041.44 906.438 1889.85 1043.54C1738.26 1180.65 1558.29 1289.41 1360.23 1363.61C1162.17 1437.81 949.883 1476 735.5 1476C521.117 1476 308.833 1437.81 110.769 1363.61C-87.2948 1289.41 -267.26 1180.65 -418.852 1043.54C-570.444 906.438 -690.693 743.669 -772.733 564.532C-854.774 385.395 -897 193.397 -897 -0.500122L735.5 -0.5H2368Z" fill="url(#paint3_radial_4367_8462)" fill-opacity="0.3" stroke="url(#paint4_linear_4367_8462)" stroke-opacity="0.5" stroke-width="2" mask="url(#path-3-inside-2_4367_8462)"/>
</g>
<g opacity="0.5">
<mask id="path-4-inside-3_4367_8462" fill="white">
<path d="M1986 -63C1986 85.525 1953.65 232.596 1890.81 369.815C1827.97 507.034 1735.86 631.715 1619.74 736.738C1503.62 841.761 1365.76 925.07 1214.05 981.908C1062.33 1038.75 899.718 1068 735.5 1068C571.282 1068 408.672 1038.75 256.954 981.908C105.237 925.07 -32.6174 841.761 -148.737 736.738C-264.857 631.715 -356.968 507.034 -419.811 369.815C-482.655 232.596 -515 85.5249 -515 -63.0001L735.5 -63H1986Z"/>
</mask>
<path d="M1986 -63C1986 85.525 1953.65 232.596 1890.81 369.815C1827.97 507.034 1735.86 631.715 1619.74 736.738C1503.62 841.761 1365.76 925.07 1214.05 981.908C1062.33 1038.75 899.718 1068 735.5 1068C571.282 1068 408.672 1038.75 256.954 981.908C105.237 925.07 -32.6174 841.761 -148.737 736.738C-264.857 631.715 -356.968 507.034 -419.811 369.815C-482.655 232.596 -515 85.5249 -515 -63.0001L735.5 -63H1986Z" fill="url(#paint5_radial_4367_8462)" fill-opacity="0.3" stroke="url(#paint6_linear_4367_8462)" stroke-opacity="0.5" stroke-width="2" mask="url(#path-4-inside-3_4367_8462)"/>
</g>
<g opacity="0.5">
<mask id="path-5-inside-4_4367_8462" fill="white">
<path d="M1767 -90C1767 19.2598 1741.04 127.45 1690.61 228.393C1640.18 329.336 1566.27 421.055 1473.08 498.313C1379.9 575.571 1269.27 636.856 1147.52 678.668C1025.77 720.48 895.281 742 763.5 742C631.718 742 501.227 720.48 379.477 678.668C257.727 636.856 147.102 575.571 53.9183 498.313C-39.2653 421.054 -113.183 329.335 -163.613 228.393C-214.044 127.45 -240 19.2597 -240 -90.0001L763.5 -90H1767Z"/>
</mask>
<path d="M1767 -90C1767 19.2598 1741.04 127.45 1690.61 228.393C1640.18 329.336 1566.27 421.055 1473.08 498.313C1379.9 575.571 1269.27 636.856 1147.52 678.668C1025.77 720.48 895.281 742 763.5 742C631.718 742 501.227 720.48 379.477 678.668C257.727 636.856 147.102 575.571 53.9183 498.313C-39.2653 421.054 -113.183 329.335 -163.613 228.393C-214.044 127.45 -240 19.2597 -240 -90.0001L763.5 -90H1767Z" fill="url(#paint7_radial_4367_8462)" fill-opacity="0.5" stroke="url(#paint8_linear_4367_8462)" stroke-opacity="0.5" stroke-width="2" mask="url(#path-5-inside-4_4367_8462)"/>
</g>
<g opacity="0.5">
<mask id="path-6-inside-5_4367_8462" fill="white">
<path d="M1569 -57C1569 25.0762 1547.61 106.349 1506.05 182.177C1464.49 258.006 1403.57 326.905 1326.78 384.942C1249.98 442.978 1158.82 489.016 1058.48 520.425C958.143 551.834 850.603 568 742 568C633.397 568 525.857 551.834 425.521 520.425C325.185 489.016 234.017 442.978 157.223 384.942C80.4286 326.905 19.5122 258.006 -22.0484 182.177C-63.609 106.349 -85 25.0761 -85 -57.0001L742 -57H1569Z"/>
</mask>
<path d="M1569 -57C1569 25.0762 1547.61 106.349 1506.05 182.177C1464.49 258.006 1403.57 326.905 1326.78 384.942C1249.98 442.978 1158.82 489.016 1058.48 520.425C958.143 551.834 850.603 568 742 568C633.397 568 525.857 551.834 425.521 520.425C325.185 489.016 234.017 442.978 157.223 384.942C80.4286 326.905 19.5122 258.006 -22.0484 182.177C-63.609 106.349 -85 25.0761 -85 -57.0001L742 -57H1569Z" fill="url(#paint9_radial_4367_8462)" fill-opacity="0.5" stroke="url(#paint10_linear_4367_8462)" stroke-opacity="0.5" stroke-width="2" mask="url(#path-6-inside-5_4367_8462)"/>
</g>
<g opacity="0.5">
<mask id="path-7-inside-6_4367_8462" fill="white">
<path d="M1432 -14C1432 52.5802 1413.98 118.508 1378.98 180.021C1343.98 241.533 1292.68 297.424 1228 344.503C1163.32 391.582 1086.54 428.928 1002.04 454.407C917.536 479.886 826.966 493 735.5 493C644.034 493 553.464 479.886 468.961 454.407C384.458 428.928 307.676 391.582 243 344.503C178.324 297.424 127.02 241.533 92.0179 180.02C57.0155 118.508 39 52.5801 39 -14L735.5 -14H1432Z"/>
</mask>
<path d="M1432 -14C1432 52.5802 1413.98 118.508 1378.98 180.021C1343.98 241.533 1292.68 297.424 1228 344.503C1163.32 391.582 1086.54 428.928 1002.04 454.407C917.536 479.886 826.966 493 735.5 493C644.034 493 553.464 479.886 468.961 454.407C384.458 428.928 307.676 391.582 243 344.503C178.324 297.424 127.02 241.533 92.0179 180.02C57.0155 118.508 39 52.5801 39 -14L735.5 -14H1432Z" fill="url(#paint11_radial_4367_8462)" fill-opacity="0.5" stroke="url(#paint12_linear_4367_8462)" stroke-opacity="0.5" stroke-width="2" mask="url(#path-7-inside-6_4367_8462)"/>
</g>
<g opacity="0.5">
<mask id="path-8-inside-7_4367_8462" fill="white">
<path d="M1296 -44C1296 8.79138 1281.67 61.0659 1253.83 109.839C1225.99 158.612 1185.18 202.928 1133.74 240.257C1082.29 277.586 1021.22 307.197 954.007 327.4C886.792 347.602 814.752 358 742 358C669.248 358 597.208 347.602 529.993 327.4C462.779 307.197 401.706 277.586 350.263 240.257C298.819 202.928 258.012 158.612 230.171 109.839C202.33 61.0658 188 8.79135 188 -44L742 -44H1296Z"/>
</mask>
<path d="M1296 -44C1296 8.79138 1281.67 61.0659 1253.83 109.839C1225.99 158.612 1185.18 202.928 1133.74 240.257C1082.29 277.586 1021.22 307.197 954.007 327.4C886.792 347.602 814.752 358 742 358C669.248 358 597.208 347.602 529.993 327.4C462.779 307.197 401.706 277.586 350.263 240.257C298.819 202.928 258.012 158.612 230.171 109.839C202.33 61.0658 188 8.79135 188 -44L742 -44H1296Z" fill="url(#paint13_radial_4367_8462)" fill-opacity="0.5" stroke="url(#paint14_linear_4367_8462)" stroke-opacity="0.5" stroke-width="2" mask="url(#path-8-inside-7_4367_8462)"/>
</g>
<g opacity="0.5">
<mask id="path-9-inside-8_4367_8462" fill="white">
<path d="M1168 -63.5C1168 -22.1993 1156.81 18.6971 1135.08 56.8539C1113.34 95.0108 1081.49 129.681 1041.32 158.885C1001.16 188.089 953.484 211.255 901.011 227.06C848.537 242.865 792.297 251 735.5 251C678.703 251 622.463 242.865 569.989 227.06C517.516 211.255 469.838 188.089 429.676 158.885C389.515 129.681 357.657 95.0108 335.922 56.8539C314.187 18.697 303 -22.1993 303 -63.5L735.5 -63.5H1168Z"/>
</mask>
<path d="M1168 -63.5C1168 -22.1993 1156.81 18.6971 1135.08 56.8539C1113.34 95.0108 1081.49 129.681 1041.32 158.885C1001.16 188.089 953.484 211.255 901.011 227.06C848.537 242.865 792.297 251 735.5 251C678.703 251 622.463 242.865 569.989 227.06C517.516 211.255 469.838 188.089 429.676 158.885C389.515 129.681 357.657 95.0108 335.922 56.8539C314.187 18.697 303 -22.1993 303 -63.5L735.5 -63.5H1168Z" fill="url(#paint15_radial_4367_8462)" fill-opacity="0.5" stroke="url(#paint16_linear_4367_8462)" stroke-opacity="0.5" stroke-width="2" mask="url(#path-9-inside-8_4367_8462)"/>
</g>
</g>
<defs>
<linearGradient id="paint0_linear_4367_8462" x1="735.5" y1="2630" x2="735.5" y2="0" gradientUnits="userSpaceOnUse">
<stop stop-color="#9C0000"/>
<stop offset="1" stop-color="#360000"/>
</linearGradient>
<radialGradient id="paint1_radial_4367_8462" cx="0" cy="0" r="1" gradientUnits="userSpaceOnUse" gradientTransform="translate(717.5 3) rotate(90) scale(2209 5773.19)">
<stop stop-color="#B91919"/>
<stop offset="0.411302" stop-color="#C23838"/>
<stop offset="1" stop-color="#F4DBDB"/>
</radialGradient>
<linearGradient id="paint2_linear_4367_8462" x1="717.5" y1="-2206" x2="717.5" y2="2212" gradientUnits="userSpaceOnUse">
<stop offset="0.658654" stop-color="white" stop-opacity="0"/>
<stop offset="0.879808" stop-color="white"/>
</linearGradient>
<radialGradient id="paint3_radial_4367_8462" cx="0" cy="0" r="1" gradientUnits="userSpaceOnUse" gradientTransform="translate(735.5 -0.5) rotate(90) scale(1476.5 3858.64)">
<stop stop-color="#B91919"/>
<stop offset="0.411302" stop-color="#C23838"/>
<stop offset="1" stop-color="#F4DBDB"/>
</radialGradient>
<linearGradient id="paint4_linear_4367_8462" x1="735.5" y1="-1477" x2="735.5" y2="1476" gradientUnits="userSpaceOnUse">
<stop offset="0.658654" stop-color="white" stop-opacity="0"/>
<stop offset="0.879808" stop-color="white"/>
</linearGradient>
<radialGradient id="paint5_radial_4367_8462" cx="0" cy="0" r="1" gradientUnits="userSpaceOnUse" gradientTransform="translate(735.5 -63) rotate(90) scale(1131 2955.73)">
<stop stop-color="#B91919"/>
<stop offset="0.411302" stop-color="#C23838"/>
<stop offset="1" stop-color="#F4DBDB"/>
</radialGradient>
<linearGradient id="paint6_linear_4367_8462" x1="735.5" y1="-1194" x2="735.5" y2="1068" gradientUnits="userSpaceOnUse">
<stop offset="0.658654" stop-color="white" stop-opacity="0"/>
<stop offset="0.879808" stop-color="white"/>
</linearGradient>
<radialGradient id="paint7_radial_4367_8462" cx="0" cy="0" r="1" gradientUnits="userSpaceOnUse" gradientTransform="translate(763.5 -90) rotate(90) scale(832 2371.91)">
<stop stop-color="#B91919"/>
<stop offset="0.411302" stop-color="#C23838"/>
<stop offset="1" stop-color="#F4DBDB"/>
</radialGradient>
<linearGradient id="paint8_linear_4367_8462" x1="763.5" y1="-922" x2="763.5" y2="742" gradientUnits="userSpaceOnUse">
<stop offset="0.658654" stop-color="white" stop-opacity="0"/>
<stop offset="0.879808" stop-color="white"/>
</linearGradient>
<radialGradient id="paint9_radial_4367_8462" cx="0" cy="0" r="1" gradientUnits="userSpaceOnUse" gradientTransform="translate(742 -57) rotate(90) scale(625 1954.73)">
<stop stop-color="#B91919"/>
<stop offset="0.411302" stop-color="#C23838"/>
<stop offset="1" stop-color="#F4DBDB"/>
</radialGradient>
<linearGradient id="paint10_linear_4367_8462" x1="742" y1="-682" x2="742" y2="568" gradientUnits="userSpaceOnUse">
<stop offset="0.658654" stop-color="white" stop-opacity="0"/>
<stop offset="0.879808" stop-color="white"/>
</linearGradient>
<radialGradient id="paint11_radial_4367_8462" cx="0" cy="0" r="1" gradientUnits="userSpaceOnUse" gradientTransform="translate(735.5 -14) rotate(90) scale(507 1646.27)">
<stop stop-color="#B91919"/>
<stop offset="0.411302" stop-color="#C23838"/>
<stop offset="1" stop-color="#F4DBDB"/>
</radialGradient>
<linearGradient id="paint12_linear_4367_8462" x1="735.5" y1="-521" x2="735.5" y2="493" gradientUnits="userSpaceOnUse">
<stop offset="0.658654" stop-color="white" stop-opacity="0"/>
<stop offset="0.879808" stop-color="white"/>
</linearGradient>
<radialGradient id="paint13_radial_4367_8462" cx="0" cy="0" r="1" gradientUnits="userSpaceOnUse" gradientTransform="translate(742 -44) rotate(90) scale(402 1309.46)">
<stop stop-color="#B91919"/>
<stop offset="0.411302" stop-color="#C23838"/>
<stop offset="1" stop-color="#F4DBDB"/>
</radialGradient>
<linearGradient id="paint14_linear_4367_8462" x1="742" y1="-446" x2="742" y2="358" gradientUnits="userSpaceOnUse">
<stop offset="0.658654" stop-color="white" stop-opacity="0"/>
<stop offset="0.879808" stop-color="white"/>
</linearGradient>
<radialGradient id="paint15_radial_4367_8462" cx="0" cy="0" r="1" gradientUnits="userSpaceOnUse" gradientTransform="translate(735.5 -63.5) rotate(90) scale(314.5 1022.27)">
<stop stop-color="#B91919"/>
<stop offset="0.730769" stop-color="#C23838"/>
<stop offset="1" stop-color="#F4DBDB"/>
</radialGradient>
<linearGradient id="paint16_linear_4367_8462" x1="735.5" y1="-378" x2="735.5" y2="251" gradientUnits="userSpaceOnUse">
<stop offset="0.658654" stop-color="white" stop-opacity="0"/>
<stop offset="0.879808" stop-color="white"/>
</linearGradient>
<clipPath id="clip0_4367_8462">
<rect width="1471" height="2630" rx="12" transform="matrix(1 0 0 -1 0 2630)" fill="white"/>
</clipPath>
</defs>
</svg>
