<svg width="175" height="178" viewBox="0 0 175 178" fill="none" xmlns="http://www.w3.org/2000/svg">
<path d="M87.4997 142.4C69.2705 142.4 53.1559 132.907 43.7497 118.667C43.9684 103.833 72.9163 95.6749 87.4997 95.6749C102.083 95.6749 131.031 103.833 131.25 118.667C126.43 125.969 119.919 131.953 112.289 136.091C104.66 140.23 96.1464 142.397 87.4997 142.4ZM87.4997 37.0833C93.3013 37.0833 98.8653 39.4274 102.968 43.6001C107.07 47.7728 109.375 53.4322 109.375 59.3333C109.375 65.2343 107.07 70.8937 102.968 75.0664C98.8653 79.2391 93.3013 81.5833 87.4997 81.5833C81.6981 81.5833 76.1341 79.2391 72.0317 75.0664C67.9294 70.8937 65.6247 65.2343 65.6247 59.3333C65.6247 53.4322 67.9294 47.7728 72.0317 43.6001C76.1341 39.4274 81.6981 37.0833 87.4997 37.0833ZM87.4997 14.8333C77.9241 14.8333 68.4423 16.7516 59.5957 20.4789C50.749 24.2061 42.7107 29.6692 35.9398 36.5562C22.2653 50.4651 14.583 69.3297 14.583 88.9999C14.583 108.67 22.2653 127.535 35.9398 141.444C42.7107 148.331 50.749 153.794 59.5957 157.521C68.4423 161.248 77.9241 163.167 87.4997 163.167C106.838 163.167 125.385 155.353 139.06 141.444C152.734 127.535 160.416 108.67 160.416 88.9999C160.416 47.9857 127.604 14.8333 87.4997 14.8333Z" fill="#630418"/>
</svg>
