<svg width="20" height="21" viewBox="0 0 20 21" fill="none" xmlns="http://www.w3.org/2000/svg">
<g clip-path="url(#clip0_1527_4830)">
<path fill-rule="evenodd" clip-rule="evenodd" d="M6.25 13.125H3.75V11.8125H16.25V13.125H12.5V15.75H16.25V17.0625H12.5V19.6875H11.25V17.0625H7.5V19.6875H6.25V17.0625H3.75V15.75H6.25V13.125ZM7.5 13.125V15.75H11.25V13.125H7.5Z" fill="#8C0404"/>
<path d="M5 0H11.875V1.3125H5C4.66848 1.3125 4.35054 1.45078 4.11612 1.69692C3.8817 1.94306 3.75 2.2769 3.75 2.625V18.375C3.75 18.7231 3.8817 19.0569 4.11612 19.3031C4.35054 19.5492 4.66848 19.6875 5 19.6875H15C15.3315 19.6875 15.6495 19.5492 15.8839 19.3031C16.1183 19.0569 16.25 18.7231 16.25 18.375V5.90625H17.5V18.375C17.5 19.0712 17.2366 19.7389 16.7678 20.2312C16.2989 20.7234 15.663 21 15 21H5C4.33696 21 3.70107 20.7234 3.23223 20.2312C2.76339 19.7389 2.5 19.0712 2.5 18.375V2.625C2.5 1.92881 2.76339 1.26113 3.23223 0.768845C3.70107 0.276562 4.33696 0 5 0V0Z" fill="#8C0404"/>
<path d="M11.875 3.9375V0L17.5 5.90625H13.75C13.2527 5.90625 12.7758 5.69883 12.4242 5.32962C12.0725 4.9604 11.875 4.45964 11.875 3.9375V3.9375Z" fill="#8C0404"/>
</g>
<defs>
<clipPath id="clip0_1527_4830">
<rect width="20" height="21" fill="white"/>
</clipPath>
</defs>
</svg>
