<svg width="60" height="60" viewBox="0 0 60 60" fill="none" xmlns="http://www.w3.org/2000/svg">
<rect width="60" height="60" rx="30" fill="#8C0404"/>
<path fill-rule="evenodd" clip-rule="evenodd" d="M26.25 15C26.4986 15 26.7371 15.0988 26.9129 15.2746C27.0887 15.4504 27.1875 15.6889 27.1875 15.9375V20.625H32.8125V15.9375C32.8125 15.6889 32.9113 15.4504 33.0871 15.2746C33.2629 15.0988 33.5014 15 33.75 15C33.9986 15 34.2371 15.0988 34.4129 15.2746C34.5887 15.4504 34.6875 15.6889 34.6875 15.9375V20.625H36.5625C36.8111 20.625 37.0496 20.7238 37.2254 20.8996C37.4012 21.0754 37.5 21.3139 37.5 21.5625V27.1875C37.5 28.928 36.8086 30.5972 35.5779 31.8279C34.3472 33.0586 32.678 33.75 30.9375 33.75C30.9338 34.5637 30.9187 35.3344 30.8625 36.0375C30.7856 37.0013 30.6262 37.9181 30.2681 38.7075C29.905 39.5423 29.2617 40.2241 28.4494 40.635C27.6094 41.0625 26.5669 41.25 25.3125 41.25C23.4412 41.25 22.2938 41.8688 21.6112 42.5963C20.995 43.247 20.6434 44.104 20.625 45H18.75C18.75 43.845 19.185 42.4369 20.2444 41.31C21.3262 40.1625 22.9894 39.375 25.3125 39.375C26.4019 39.375 27.1163 39.21 27.5962 38.9644C28.0481 38.7337 28.3462 38.4019 28.56 37.9331C28.7869 37.4344 28.9219 36.7687 28.9913 35.8894C29.0419 35.2519 29.0569 34.5431 29.0606 33.75C27.3205 33.7495 25.6518 33.0579 24.4214 31.8272C23.1911 30.5966 22.5 28.9277 22.5 27.1875V21.5625C22.5 21.3139 22.5988 21.0754 22.7746 20.8996C22.9504 20.7238 23.1889 20.625 23.4375 20.625H25.3125V15.9375C25.3125 15.6889 25.4113 15.4504 25.5871 15.2746C25.7629 15.0988 26.0014 15 26.25 15V15Z" fill="white"/>
</svg>
