<svg width="26" height="26" viewBox="0 0 26 26" fill="none" xmlns="http://www.w3.org/2000/svg">
<path d="M21.7075 0.293896L25.7075 4.2939C25.8005 4.38677 25.8742 4.49706 25.9246 4.61846C25.9749 4.73986 26.0008 4.86998 26.0008 5.0014C26.0008 5.13281 25.9749 5.26294 25.9246 5.38434C25.8742 5.50574 25.8005 5.61602 25.7075 5.7089L21.7075 9.7089C21.5199 9.89654 21.2654 10.002 21 10.002C20.7346 10.002 20.4801 9.89654 20.2925 9.7089C20.1049 9.52126 19.9994 9.26676 19.9994 9.0014C19.9994 8.73603 20.1049 8.48154 20.2925 8.2939L22.5863 6.0014H15.4137L8.41375 13.0014L15.4137 20.0014H22.5863L20.2925 17.7089C20.1049 17.5213 19.9994 17.2668 19.9994 17.0014C19.9994 16.736 20.1049 16.4815 20.2925 16.2939C20.4801 16.1063 20.7346 16.0008 21 16.0008C21.2654 16.0008 21.5199 16.1063 21.7075 16.2939L25.7075 20.2939C25.8005 20.3868 25.8742 20.4971 25.9246 20.6185C25.9749 20.7399 26.0008 20.87 26.0008 21.0014C26.0008 21.1328 25.9749 21.2629 25.9246 21.3843C25.8742 21.5057 25.8005 21.616 25.7075 21.7089L21.7075 25.7089C21.6146 25.8018 21.5043 25.8755 21.3829 25.9258C21.2615 25.9761 21.1314 26.002 21 26.002C20.8686 26.002 20.7385 25.9761 20.6171 25.9258C20.4957 25.8755 20.3854 25.8018 20.2925 25.7089C20.1049 25.5213 19.9994 25.2668 19.9994 25.0014C19.9994 24.87 20.0253 24.7399 20.0756 24.6185C20.1259 24.4971 20.1996 24.3868 20.2925 24.2939L22.5863 22.0014H15C14.8686 22.0015 14.7385 21.9757 14.6171 21.9255C14.4958 21.8753 14.3854 21.8017 14.2925 21.7089L6.58625 14.0014H1C0.734784 14.0014 0.48043 13.896 0.292893 13.7085C0.105357 13.521 0 13.2666 0 13.0014C0 12.7362 0.105357 12.4818 0.292893 12.2943C0.48043 12.1068 0.734784 12.0014 1 12.0014H6.58625L14.2925 4.2939C14.3854 4.20106 14.4958 4.12745 14.6171 4.07726C14.7385 4.02707 14.8686 4.00129 15 4.0014H22.5863L20.2925 1.7089C20.1049 1.52126 19.9994 1.26676 19.9994 1.0014C19.9994 0.736032 20.1049 0.481536 20.2925 0.293896C20.4801 0.106255 20.7346 0.000839233 21 0.000839233C21.2654 0.000839233 21.5199 0.106255 21.7075 0.293896Z" fill="#020202"/>
</svg>
