<svg width="24" height="18" viewBox="0 0 24 18" fill="none" xmlns="http://www.w3.org/2000/svg">
<path fill-rule="evenodd" clip-rule="evenodd" d="M12 4.5C12 5.29565 11.6839 6.05871 11.1213 6.62132C10.5587 7.18393 9.79565 7.5 9 7.5C8.20435 7.5 7.44129 7.18393 6.87868 6.62132C6.31607 6.05871 6 5.29565 6 4.5C6 3.70435 6.31607 2.94129 6.87868 2.37868C7.44129 1.81607 8.20435 1.5 9 1.5C9.79565 1.5 10.5587 1.81607 11.1213 2.37868C11.6839 2.94129 12 3.70435 12 4.5ZM9 9C10.1935 9 11.3381 8.52589 12.182 7.68198C13.0259 6.83807 13.5 5.69347 13.5 4.5C13.5 3.30653 13.0259 2.16193 12.182 1.31802C11.3381 0.474106 10.1935 0 9 0C7.80653 0 6.66193 0.474106 5.81802 1.31802C4.97411 2.16193 4.5 3.30653 4.5 4.5C4.5 5.69347 4.97411 6.83807 5.81802 7.68198C6.66193 8.52589 7.80653 9 9 9ZM18 16.5C18 18 16.5 18 16.5 18H1.5C1.5 18 0 18 0 16.5C0 15 1.5 10.5 9 10.5C16.5 10.5 18 15 18 16.5ZM16.5 16.494C16.4985 16.125 16.269 15.015 15.252 13.998C14.274 13.02 12.4335 12 9 12C5.565 12 3.726 13.02 2.748 13.998C1.731 15.015 1.503 16.125 1.5 16.494H16.5ZM23.781 4.719C23.8508 4.78867 23.9063 4.87143 23.9441 4.96255C23.9819 5.05367 24.0013 5.15135 24.0013 5.25C24.0013 5.34865 23.9819 5.44633 23.9441 5.53745C23.9063 5.62857 23.8508 5.71133 23.781 5.781L19.281 10.281C19.2113 10.3508 19.1286 10.4063 19.0374 10.4441C18.9463 10.4819 18.8487 10.5013 18.75 10.5013C18.6513 10.5013 18.5537 10.4819 18.4626 10.4441C18.3714 10.4063 18.2887 10.3508 18.219 10.281L15.969 8.031C15.8282 7.89017 15.7491 7.69916 15.7491 7.5C15.7491 7.30084 15.8282 7.10983 15.969 6.969C16.1098 6.82817 16.3008 6.74905 16.5 6.74905C16.6992 6.74905 16.8902 6.82817 17.031 6.969L18.75 8.6895L22.719 4.719C22.7887 4.64916 22.8714 4.59374 22.9626 4.55593C23.0537 4.51812 23.1513 4.49866 23.25 4.49866C23.3487 4.49866 23.4463 4.51812 23.5374 4.55593C23.6286 4.59374 23.7113 4.64916 23.781 4.719Z" fill="#8C0404"/>
</svg>
