<svg width="29" height="28" viewBox="0 0 29 28" fill="none" xmlns="http://www.w3.org/2000/svg">
<path fill-rule="evenodd" clip-rule="evenodd" d="M27.1874 14.0011C27.1874 13.769 27.0919 13.5465 26.922 13.3824C26.752 13.2183 26.5215 13.1261 26.2812 13.1261H4.90635L10.6103 7.62061C10.6945 7.53925 10.7614 7.44267 10.807 7.33638C10.8526 7.23008 10.8761 7.11616 10.8761 7.00111C10.8761 6.88605 10.8526 6.77213 10.807 6.66583C10.7614 6.55954 10.6945 6.46296 10.6103 6.38161C10.526 6.30025 10.426 6.23572 10.3159 6.19169C10.2058 6.14766 10.0878 6.125 9.96866 6.125C9.8495 6.125 9.73151 6.14766 9.62142 6.19169C9.51132 6.23572 9.41129 6.30025 9.32704 6.38161L2.07704 13.3816C1.99264 13.4629 1.92568 13.5594 1.87999 13.6657C1.83431 13.7721 1.81079 13.886 1.81079 14.0011C1.81079 14.1162 1.83431 14.2302 1.87999 14.3365C1.92568 14.4428 1.99264 14.5393 2.07704 14.6206L9.32704 21.6206C9.41129 21.702 9.51132 21.7665 9.62142 21.8105C9.73151 21.8545 9.8495 21.8772 9.96866 21.8772C10.0878 21.8772 10.2058 21.8545 10.3159 21.8105C10.426 21.7665 10.526 21.702 10.6103 21.6206C10.6945 21.5393 10.7614 21.4427 10.807 21.3364C10.8526 21.2301 10.8761 21.1162 10.8761 21.0011C10.8761 20.8861 10.8526 20.7721 10.807 20.6658C10.7614 20.5595 10.6945 20.463 10.6103 20.3816L4.90635 14.8761H26.2812C26.5215 14.8761 26.752 14.7839 26.922 14.6198C27.0919 14.4557 27.1874 14.2332 27.1874 14.0011Z" fill="black"/>
</svg>
