<svg width="40" height="40" viewBox="0 0 40 40" fill="none" xmlns="http://www.w3.org/2000/svg">
<rect width="40" height="40" rx="5" fill="#BA1A1A"/>
<path d="M29.4444 20.9358C29.4444 20.9358 29.4383 20.9421 29.4353 20.9452L14.164 29.3803C13.9201 29.5212 13.6378 29.5836 13.3551 29.5591C13.0724 29.5346 12.8028 29.4243 12.5824 29.2431C12.5509 29.2175 12.5205 29.1906 12.4914 29.1625C12.2991 28.9779 12.1629 28.743 12.0989 28.4853C12.0349 28.2277 12.0457 27.9581 12.1301 27.7084L14.3324 20.8129C14.3545 20.7439 14.3977 20.6837 14.456 20.6408C14.5143 20.598 14.5848 20.5745 14.6576 20.5738L21.8226 20.4975C22.0049 20.4908 22.1765 20.4133 22.3007 20.2812C22.4249 20.1492 22.492 19.9732 22.4875 19.7908C22.4831 19.6084 22.4076 19.4339 22.277 19.3046C22.1465 19.1753 21.9712 19.1014 21.7887 19.0987L14.6218 19.1732C14.5489 19.174 14.4774 19.1521 14.417 19.1105C14.3567 19.0689 14.3106 19.0097 14.2851 18.9411L11.7445 12.0925C11.6439 11.8259 11.6263 11.5363 11.6941 11.2618C11.7618 10.9873 11.9117 10.741 12.1239 10.5556C12.336 10.3702 12.6004 10.2543 12.882 10.2234C13.1636 10.1924 13.4492 10.2479 13.7008 10.3824L29.3732 18.4878L29.3827 18.4969C29.6022 18.6161 29.7868 18.7911 29.9175 19.004C30.0483 19.2168 30.1205 19.4598 30.1268 19.708C30.133 19.9563 30.0731 20.2008 29.9532 20.4166C29.8333 20.6323 29.6577 20.8116 29.4444 20.9358Z" fill="white"/>
</svg>
