<svg width="124" height="99" viewBox="0 0 124 99" fill="none" xmlns="http://www.w3.org/2000/svg">
<g clip-path="url(#clip0_2625_7331)">
<path d="M0 4.35453C0 3.19964 0.391927 2.09205 1.08956 1.27541C1.7872 0.45878 2.73339 0 3.72 0L120.28 0C121.267 0 122.213 0.45878 122.91 1.27541C123.608 2.09205 124 3.19964 124 4.35453V98.7027H0V4.35453Z" fill="#2D2D2D"/>
<path d="M0 0H124V14.5151H0V0Z" fill="#393939"/>
<path d="M0 14.5156H124V15.9671H0V14.5156Z" fill="#242424"/>
<path d="M24.8008 15.9668H27.2808V98.7029H24.8008V15.9668Z" fill="#3C4146"/>
<path d="M3.7207 21.7718C3.7207 20.9009 4.2167 20.3203 4.9607 20.3203H24.8007V31.9324H4.9607C4.63183 31.9324 4.31644 31.7795 4.08389 31.5073C3.85135 31.235 3.7207 30.8658 3.7207 30.4809V21.7718Z" fill="#6A737C"/>
<path d="M91.7602 20.3203H33.4802C32.7954 20.3203 32.2402 20.9702 32.2402 21.7718V30.4809C32.2402 31.2825 32.7954 31.9324 33.4802 31.9324H91.7602C92.4451 31.9324 93.0002 31.2825 93.0002 30.4809V21.7718C93.0002 20.9702 92.4451 20.3203 91.7602 20.3203Z" fill="#6A737C"/>
<path d="M119.04 5.80664H116.56C115.875 5.80664 115.32 6.4565 115.32 7.25815V10.1612C115.32 10.9628 115.875 11.6127 116.56 11.6127H119.04C119.725 11.6127 120.28 10.9628 120.28 10.1612V7.25815C120.28 6.4565 119.725 5.80664 119.04 5.80664Z" fill="#6A737C"/>
<path d="M110.361 5.80664H107.881C107.196 5.80664 106.641 6.4565 106.641 7.25815V10.1612C106.641 10.9628 107.196 11.6127 107.881 11.6127H110.361C111.045 11.6127 111.601 10.9628 111.601 10.1612V7.25815C111.601 6.4565 111.045 5.80664 110.361 5.80664Z" fill="#6A737C"/>
<path d="M7.4407 5.80664H4.9607C4.27587 5.80664 3.7207 6.4565 3.7207 7.25815V10.1612C3.7207 10.9628 4.27587 11.6127 4.9607 11.6127H7.4407C8.12554 11.6127 8.6807 10.9628 8.6807 10.1612V7.25815C8.6807 6.4565 8.12554 5.80664 7.4407 5.80664Z" fill="#6A737C"/>
<path d="M119.041 39.1914H45.8806C45.1958 39.1914 44.6406 39.8413 44.6406 40.6429V43.5459C44.6406 44.3476 45.1958 44.9974 45.8806 44.9974H119.041C119.725 44.9974 120.281 44.3476 120.281 43.5459V40.6429C120.281 39.8413 119.725 39.1914 119.041 39.1914Z" fill="#6A737C"/>
<path d="M115.321 49.3516H45.8806C45.1958 49.3516 44.6406 50.0014 44.6406 50.8031V53.7061C44.6406 54.5077 45.1958 55.1576 45.8806 55.1576H115.321C116.005 55.1576 116.561 54.5077 116.561 53.7061V50.8031C116.561 50.0014 116.005 49.3516 115.321 49.3516Z" fill="#6A737C"/>
<path d="M114.081 59.5117H45.8806C45.1958 59.5117 44.6406 60.1616 44.6406 60.9632V63.8662C44.6406 64.6679 45.1958 65.3178 45.8806 65.3178H114.081C114.765 65.3178 115.321 64.6679 115.321 63.8662V60.9632C115.321 60.1616 114.765 59.5117 114.081 59.5117Z" fill="#6A737C"/>
<path d="M116.561 69.6719H45.8806C45.1958 69.6719 44.6406 70.3217 44.6406 71.1234V74.0264C44.6406 74.8281 45.1958 75.4779 45.8806 75.4779H116.561C117.245 75.4779 117.801 74.8281 117.801 74.0264V71.1234C117.801 70.3217 117.245 69.6719 116.561 69.6719Z" fill="#6A737C"/>
<path d="M38.4402 39.1914H33.4802C32.7954 39.1914 32.2402 39.8413 32.2402 40.6429V46.449C32.2402 47.2506 32.7954 47.9005 33.4802 47.9005H38.4402C39.1251 47.9005 39.6802 47.2506 39.6802 46.449V40.6429C39.6802 39.8413 39.1251 39.1914 38.4402 39.1914Z" fill="#6A737C"/>
<path d="M38.4402 62.4141H33.4802C32.7954 62.4141 32.2402 63.0639 32.2402 63.8656V69.6716C32.2402 70.4733 32.7954 71.1231 33.4802 71.1231H38.4402C39.1251 71.1231 39.6802 70.4733 39.6802 69.6716V63.8656C39.6802 63.0639 39.1251 62.4141 38.4402 62.4141Z" fill="#6A737C"/>
<path d="M119.04 82.7363H104.16C103.475 82.7363 102.92 83.3862 102.92 84.1878V92.8969C102.92 93.6985 103.475 94.3484 104.16 94.3484H119.04C119.725 94.3484 120.28 93.6985 120.28 92.8969V84.1878C120.28 83.3862 119.725 82.7363 119.04 82.7363Z" fill="#6A737C"/>
<path d="M37.2005 52.2539H34.7205C34.0356 52.2539 33.4805 52.9038 33.4805 53.7054V56.6084C33.4805 57.4101 34.0356 58.0599 34.7205 58.0599H37.2005C37.8853 58.0599 38.4405 57.4101 38.4405 56.6084V53.7054C38.4405 52.9038 37.8853 52.2539 37.2005 52.2539Z" fill="#6A737C"/>
<path d="M24.8008 20.3203H27.2808V31.9324H24.8008V20.3203Z" fill="#C62742"/>
<path d="M119.041 20.3203H97.9607C97.2759 20.3203 96.7207 20.9702 96.7207 21.7718V30.4809C96.7207 31.2825 97.2759 31.9324 97.9607 31.9324H119.041C119.726 31.9324 120.281 31.2825 120.281 30.4809V21.7718C120.281 20.9702 119.726 20.3203 119.041 20.3203Z" fill="#C62742"/>
<path d="M0 0H124V2.90302H0V0Z" fill="#C62742"/>
</g>
<defs>
<clipPath id="clip0_2625_7331">
<rect width="124" height="98.7027" fill="white"/>
</clipPath>
</defs>
</svg>
