<svg width="22" height="22" viewBox="0 0 22 22" fill="none" xmlns="http://www.w3.org/2000/svg">
<path fill-rule="evenodd" clip-rule="evenodd" d="M10.5133 1.57551C10.5771 1.51149 10.653 1.46069 10.7365 1.42603C10.82 1.39138 10.9096 1.37354 11 1.37354C11.0904 1.37354 11.18 1.39138 11.2635 1.42603C11.347 1.46069 11.4229 1.51149 11.4868 1.57551L19.7368 9.82551C19.8006 9.88948 19.8511 9.96539 19.8856 10.0489C19.92 10.1324 19.9377 10.2219 19.9375 10.3123V19.9373C19.9375 20.1196 19.8651 20.2945 19.7361 20.4234C19.6072 20.5523 19.4323 20.6248 19.25 20.6248H13.0625C12.8802 20.6248 12.7053 20.5523 12.5764 20.4234C12.4474 20.2945 12.375 20.1196 12.375 19.9373V14.4373H9.625V19.9373C9.625 20.1196 9.55257 20.2945 9.42364 20.4234C9.29471 20.5523 9.11984 20.6248 8.9375 20.6248H2.75C2.56766 20.6248 2.3928 20.5523 2.26387 20.4234C2.13493 20.2945 2.0625 20.1196 2.0625 19.9373V10.3123C2.06234 10.2219 2.07999 10.1324 2.11443 10.0489C2.14888 9.96539 2.19945 9.88948 2.26325 9.82551L10.5133 1.57551ZM3.4375 10.5969V19.2498H8.25V13.7498C8.25 13.5674 8.32243 13.3926 8.45137 13.2636C8.5803 13.1347 8.75517 13.0623 8.9375 13.0623H13.0625C13.2448 13.0623 13.4197 13.1347 13.5486 13.2636C13.6776 13.3926 13.75 13.5674 13.75 13.7498V19.2498H18.5625V10.5969L11 3.03439L3.4375 10.5969Z" fill="white"/>
</svg>
