<svg width="70" height="70" viewBox="0 0 70 70" fill="none" xmlns="http://www.w3.org/2000/svg">
<path d="M0 35C0 15.67 15.67 0 35 0C54.33 0 70 15.67 70 35C70 54.33 54.33 70 35 70C15.67 70 0 54.33 0 35Z" fill="url(#paint0_linear_2860_8028)"/>
<g clip-path="url(#clip0_2860_8028)">
<path fill-rule="evenodd" clip-rule="evenodd" d="M46.4126 19.135C46.5348 19.2133 46.6357 19.3228 46.7057 19.453C46.7757 19.5831 46.8124 19.7297 46.8125 19.8787V46.1287C46.8125 46.3608 46.7236 46.5833 46.5654 46.7474C46.4071 46.9115 46.1925 47.0037 45.9688 47.0037H40.9062C40.6825 47.0037 40.4679 46.9115 40.3096 46.7474C40.1514 46.5833 40.0625 46.3608 40.0625 46.1287V43.5037H38.375V46.1287C38.375 46.3608 38.2861 46.5833 38.1279 46.7474C37.9696 46.9115 37.755 47.0037 37.5312 47.0037H22.3438C22.12 47.0037 21.9054 46.9115 21.7471 46.7474C21.5889 46.5833 21.5 46.3608 21.5 46.1287V36.5037C21.5001 36.3201 21.5559 36.1413 21.6595 35.9924C21.7631 35.8435 21.9092 35.7322 22.0771 35.6742L31.625 32.3737V26.8787C31.625 26.7163 31.6686 26.5572 31.7508 26.419C31.8331 26.2809 31.9508 26.1692 32.0907 26.0964L45.5907 19.0965C45.7195 19.0296 45.8626 18.9981 46.0065 19.0048C46.1503 19.0115 46.2901 19.0563 46.4126 19.135ZM31.625 34.2182L23.1875 37.1337V45.2537H31.625V34.2182ZM33.3125 45.2537H36.6875V42.6287C36.6875 42.3966 36.7764 42.1741 36.9346 42.01C37.0929 41.8459 37.3075 41.7537 37.5312 41.7537H40.9062C41.13 41.7537 41.3446 41.8459 41.5029 42.01C41.6611 42.1741 41.75 42.3966 41.75 42.6287V45.2537H45.125V21.2945L33.3125 27.4194V45.2537Z" fill="white"/>
<path d="M24.875 38.25H26.5625V40H24.875V38.25ZM28.25 38.25H29.9375V40H28.25V38.25ZM24.875 41.75H26.5625V43.5H24.875V41.75ZM28.25 41.75H29.9375V43.5H28.25V41.75ZM35 34.75H36.6875V36.5H35V34.75ZM38.375 34.75H40.0625V36.5H38.375V34.75ZM35 38.25H36.6875V40H35V38.25ZM38.375 38.25H40.0625V40H38.375V38.25ZM41.75 34.75H43.4375V36.5H41.75V34.75ZM41.75 38.25H43.4375V40H41.75V38.25ZM35 31.25H36.6875V33H35V31.25ZM38.375 31.25H40.0625V33H38.375V31.25ZM41.75 31.25H43.4375V33H41.75V31.25ZM35 27.75H36.6875V29.5H35V27.75ZM38.375 27.75H40.0625V29.5H38.375V27.75ZM41.75 27.75H43.4375V29.5H41.75V27.75ZM41.75 24.25H43.4375V26H41.75V24.25Z" fill="white"/>
</g>
<defs>
<linearGradient id="paint0_linear_2860_8028" x1="35" y1="0" x2="35" y2="70" gradientUnits="userSpaceOnUse">
<stop offset="0.427885" stop-color="#8C0404"/>
<stop offset="1" stop-color="#600000"/>
</linearGradient>
<clipPath id="clip0_2860_8028">
<rect width="27" height="28" fill="white" transform="translate(21.5 19)"/>
</clipPath>
</defs>
</svg>
