<svg width="55" height="53" viewBox="0 0 55 53" fill="none" xmlns="http://www.w3.org/2000/svg">
<ellipse cx="27.5" cy="26.5" rx="27.5" ry="26.5" fill="#8C0404"/>
<g clip-path="url(#clip0_2_320)">
<path fill-rule="evenodd" clip-rule="evenodd" d="M38.9126 12.6342C39.0348 12.7126 39.1357 12.8221 39.2057 12.9522C39.2757 13.0824 39.3124 13.2289 39.3125 13.378V39.628C39.3125 39.86 39.2236 40.0826 39.0654 40.2467C38.9071 40.4108 38.6925 40.503 38.4688 40.503H33.4062C33.1825 40.503 32.9679 40.4108 32.8096 40.2467C32.6514 40.0826 32.5625 39.86 32.5625 39.628V37.003H30.875V39.628C30.875 39.86 30.7861 40.0826 30.6279 40.2467C30.4696 40.4108 30.255 40.503 30.0312 40.503H14.8438C14.62 40.503 14.4054 40.4108 14.2471 40.2467C14.0889 40.0826 14 39.86 14 39.628V30.003C14.0001 29.8194 14.0559 29.6405 14.1595 29.4917C14.2631 29.3428 14.4092 29.2315 14.5771 29.1735L24.125 25.873V20.378C24.125 20.2156 24.1686 20.0564 24.2508 19.9183C24.3331 19.7801 24.4508 19.6685 24.5907 19.5957L38.0907 12.5957C38.2195 12.5289 38.3626 12.4973 38.5065 12.5041C38.6503 12.5108 38.7901 12.5556 38.9126 12.6342ZM24.125 27.7175L15.6875 30.633V38.753H24.125V27.7175ZM25.8125 38.753H29.1875V36.128C29.1875 35.8959 29.2764 35.6733 29.4346 35.5092C29.5929 35.3452 29.8075 35.253 30.0312 35.253H33.4062C33.63 35.253 33.8446 35.3452 34.0029 35.5092C34.1611 35.6733 34.25 35.8959 34.25 36.128V38.753H37.625V14.7937L25.8125 20.9187V38.753Z" fill="white"/>
<path d="M17.375 31.75H19.0625V33.5H17.375V31.75ZM20.75 31.75H22.4375V33.5H20.75V31.75ZM17.375 35.25H19.0625V37H17.375V35.25ZM20.75 35.25H22.4375V37H20.75V35.25ZM27.5 28.25H29.1875V30H27.5V28.25ZM30.875 28.25H32.5625V30H30.875V28.25ZM27.5 31.75H29.1875V33.5H27.5V31.75ZM30.875 31.75H32.5625V33.5H30.875V31.75ZM34.25 28.25H35.9375V30H34.25V28.25ZM34.25 31.75H35.9375V33.5H34.25V31.75ZM27.5 24.75H29.1875V26.5H27.5V24.75ZM30.875 24.75H32.5625V26.5H30.875V24.75ZM34.25 24.75H35.9375V26.5H34.25V24.75ZM27.5 21.25H29.1875V23H27.5V21.25ZM30.875 21.25H32.5625V23H30.875V21.25ZM34.25 21.25H35.9375V23H34.25V21.25ZM34.25 17.75H35.9375V19.5H34.25V17.75Z" fill="white"/>
</g>
<defs>
<clipPath id="clip0_2_320">
<rect width="27" height="28" fill="white" transform="translate(14 12.5)"/>
</clipPath>
</defs>
</svg>
