<svg width="60" height="60" viewBox="0 0 60 60" fill="none" xmlns="http://www.w3.org/2000/svg">
<path d="M0 30C0 13.4315 13.4315 0 30 0C46.5685 0 60 13.4315 60 30C60 46.5685 46.5685 60 30 60C13.4315 60 0 46.5685 0 30Z" fill="url(#paint0_linear_3592_8362)"/>
<path d="M15.7419 27.76H18.4839V34.72H16.8387C16.4024 34.72 15.9839 34.9033 15.6754 35.2297C15.3669 35.556 15.1935 35.9985 15.1935 36.46C15.1935 36.9215 15.3669 37.3641 15.6754 37.6904C15.9839 38.0167 16.4024 38.2 16.8387 38.2H43.1613C43.5976 38.2 44.0161 38.0167 44.3246 37.6904C44.6331 37.3641 44.8065 36.9215 44.8065 36.46C44.8065 35.9985 44.6331 35.556 44.3246 35.2297C44.0161 34.9033 43.5976 34.72 43.1613 34.72H41.5161V27.76H44.2581C44.6163 27.7601 44.9647 27.6365 45.2505 27.4079C45.5362 27.1794 45.7436 26.8585 45.8412 26.494C45.9387 26.1294 45.9211 25.7412 45.791 25.3882C45.661 25.0352 45.4255 24.7367 45.1204 24.5382L30.8623 15.2582C30.603 15.0894 30.3045 15 30 15C29.6955 15 29.397 15.0894 29.1377 15.2582L14.8796 24.5382C14.5745 24.7367 14.339 25.0352 14.209 25.3882C14.0789 25.7412 14.0613 26.1294 14.1588 26.494C14.2564 26.8585 14.4638 27.1794 14.7495 27.4079C15.0353 27.6365 15.3837 27.7601 15.7419 27.76ZM21.7742 27.76H25.0645V34.72H21.7742V27.76ZM31.6452 27.76V34.72H28.3548V27.76H31.6452ZM38.2258 34.72H34.9355V27.76H38.2258V34.72ZM30 18.7831L38.4452 24.2801H21.5548L30 18.7831ZM47 42.26C47 42.7215 46.8267 43.1641 46.5181 43.4904C46.2096 43.8167 45.7912 44 45.3548 44H14.6452C14.2088 44 13.7904 43.8167 13.4819 43.4904C13.1733 43.1641 13 42.7215 13 42.26C13 41.7985 13.1733 41.356 13.4819 41.0296C13.7904 40.7033 14.2088 40.52 14.6452 40.52H45.3548C45.7912 40.52 46.2096 40.7033 46.5181 41.0296C46.8267 41.356 47 41.7985 47 42.26Z" fill="white"/>
<defs>
<linearGradient id="paint0_linear_3592_8362" x1="30" y1="0" x2="30" y2="60" gradientUnits="userSpaceOnUse">
<stop offset="0.427885" stop-color="#8C0404"/>
<stop offset="1" stop-color="#600000"/>
</linearGradient>
</defs>
</svg>
