<svg width="60" height="60" viewBox="0 0 60 60" fill="none" xmlns="http://www.w3.org/2000/svg">
<rect width="60" height="60" rx="30" fill="#8C0404"/>
<path d="M14.5625 27.0313H17.5312V34.1563H15.75C15.2776 34.1563 14.8245 34.344 14.4905 34.6781C14.1564 35.0121 13.9688 35.4652 13.9688 35.9376C13.9688 36.41 14.1564 36.8631 14.4905 37.1971C14.8245 37.5312 15.2776 37.7188 15.75 37.7188H44.25C44.7224 37.7188 45.1755 37.5312 45.5095 37.1971C45.8436 36.8631 46.0312 36.41 46.0312 35.9376C46.0312 35.4652 45.8436 35.0121 45.5095 34.6781C45.1755 34.344 44.7224 34.1563 44.25 34.1563H42.4688V27.0313H45.4375C45.8254 27.0314 46.2026 26.9048 46.512 26.6709C46.8213 26.437 47.0459 26.1084 47.1516 25.7353C47.2572 25.3621 47.2381 24.9646 47.0973 24.6032C46.9564 24.2419 46.7015 23.9363 46.3712 23.7331L30.9337 14.2331C30.6529 14.0602 30.3297 13.9688 30 13.9688C29.6703 13.9688 29.3471 14.0602 29.0663 14.2331L13.6288 23.7331C13.2985 23.9363 13.0436 24.2419 12.9027 24.6032C12.7619 24.9646 12.7428 25.3621 12.8484 25.7353C12.9541 26.1084 13.1787 26.437 13.488 26.6709C13.7974 26.9048 14.1746 27.0314 14.5625 27.0313ZM21.0938 27.0313H24.6562V34.1563H21.0938V27.0313ZM31.7812 27.0313V34.1563H28.2188V27.0313H31.7812ZM38.9062 34.1563H35.3438V27.0313H38.9062V34.1563ZM30 17.8416L39.1438 23.4688H20.8562L30 17.8416ZM48.4062 41.8751C48.4062 42.3475 48.2186 42.8006 47.8845 43.1346C47.5505 43.4687 47.0974 43.6563 46.625 43.6563H13.375C12.9026 43.6563 12.4495 43.4687 12.1155 43.1346C11.7814 42.8006 11.5938 42.3475 11.5938 41.8751C11.5938 41.4027 11.7814 40.9496 12.1155 40.6156C12.4495 40.2815 12.9026 40.0938 13.375 40.0938H46.625C47.0974 40.0938 47.5505 40.2815 47.8845 40.6156C48.2186 40.9496 48.4062 41.4027 48.4062 41.8751Z" fill="white"/>
</svg>
