<svg width="19" height="20" viewBox="0 0 19 20" fill="none" xmlns="http://www.w3.org/2000/svg">
<path fill-rule="evenodd" clip-rule="evenodd" d="M16.0287 0.627981L16.2056 0.441731C16.3388 0.301627 16.4969 0.190507 16.6708 0.114714C16.8448 0.038922 17.0313 -5.79719e-05 17.2195 6.47119e-08C17.4078 5.81013e-05 17.5943 0.039153 17.7682 0.115053C17.9421 0.190952 18.1001 0.30217 18.2332 0.442356C18.3663 0.582542 18.4719 0.748951 18.5439 0.932082C18.6159 1.11521 18.6529 1.31148 18.6529 1.50967C18.6528 1.70787 18.6157 1.90411 18.5436 2.0872C18.4715 2.27028 18.3658 2.43663 18.2327 2.57673L18.0557 2.76173C18.3584 3.11906 18.5198 3.58472 18.5067 4.06327C18.4937 4.54181 18.3073 4.99698 17.9857 5.33548L5.76391 18.2017C5.6875 18.2817 5.59186 18.3383 5.48722 18.3655L0.737219 19.6155C0.637816 19.6415 0.5337 19.6401 0.434992 19.6112C0.336283 19.5824 0.24634 19.5272 0.173905 19.4509C0.101471 19.3747 0.0490083 19.28 0.0216181 19.1761C-0.00577205 19.0722 -0.00715833 18.9626 0.017594 18.858L1.20509 13.858C1.23108 13.7483 1.28484 13.6481 1.36066 13.568L12.8105 1.51548C12.696 1.43064 12.5567 1.39114 12.4172 1.40395C12.2777 1.41676 12.147 1.48105 12.0482 1.58548L8.13891 5.70173C8.0837 5.75984 8.01816 5.80594 7.94604 5.83739C7.87391 5.86883 7.7966 5.88502 7.71853 5.88502C7.64046 5.88502 7.56315 5.86883 7.49102 5.83739C7.4189 5.80594 7.35336 5.75984 7.29816 5.70173C7.24295 5.64362 7.19916 5.57464 7.16928 5.49871C7.13941 5.42279 7.12403 5.34141 7.12403 5.25923C7.12403 5.17705 7.13941 5.09568 7.16928 5.01975C7.19916 4.94383 7.24295 4.87484 7.29816 4.81673L11.2098 0.701731C11.5316 0.363 11.9643 0.166757 12.4192 0.153275C12.8741 0.139793 13.3167 0.310095 13.656 0.629231C13.9823 0.32228 14.4045 0.152496 14.8421 0.152266C15.2797 0.152035 15.7021 0.321374 16.0287 0.627981ZM15.2639 1.58548C15.1526 1.46831 15.0016 1.40249 14.8441 1.40249C14.6867 1.40249 14.5357 1.46831 14.4243 1.58548L2.31541 14.3292L1.40816 18.1505L5.03834 17.1955L17.1473 4.45173C17.2026 4.39367 17.2464 4.3247 17.2764 4.24877C17.3063 4.17284 17.3217 4.09144 17.3217 4.00923C17.3217 3.92702 17.3063 3.84562 17.2764 3.76969C17.2464 3.69376 17.2026 3.62479 17.1473 3.56673L15.2651 1.58548H15.2639Z" fill="#1E1E1E"/>
</svg>
