<svg width="60" height="60" viewBox="0 0 60 60" fill="none" xmlns="http://www.w3.org/2000/svg">
<rect width="60" height="60" rx="30" fill="#8C0404"/>
<g clip-path="url(#clip0_23_2750)">
<path fill-rule="evenodd" clip-rule="evenodd" d="M24.375 15C24.6236 15 24.8621 15.0988 25.0379 15.2746C25.2137 15.4504 25.3125 15.6889 25.3125 15.9375V18.75H27.1875V15.9375C27.1875 15.6889 27.2863 15.4504 27.4621 15.2746C27.6379 15.0988 27.8764 15 28.125 15C28.3736 15 28.6121 15.0988 28.7879 15.2746C28.9637 15.4504 29.0625 15.6889 29.0625 15.9375V18.75H30.9375V15.9375C30.9375 15.6889 31.0363 15.4504 31.2121 15.2746C31.3879 15.0988 31.6264 15 31.875 15C32.1236 15 32.3621 15.0988 32.5379 15.2746C32.7137 15.4504 32.8125 15.6889 32.8125 15.9375V18.75H34.6875V15.9375C34.6875 15.6889 34.7863 15.4504 34.9621 15.2746C35.1379 15.0988 35.3764 15 35.625 15C35.8736 15 36.1121 15.0988 36.2879 15.2746C36.4637 15.4504 36.5625 15.6889 36.5625 15.9375V18.75C37.8057 18.75 38.998 19.2439 39.8771 20.1229C40.7561 21.002 41.25 22.1943 41.25 23.4375H44.0625C44.3111 23.4375 44.5496 23.5363 44.7254 23.7121C44.9012 23.8879 45 24.1264 45 24.375C45 24.6236 44.9012 24.8621 44.7254 25.0379C44.5496 25.2137 44.3111 25.3125 44.0625 25.3125H41.25V27.1875H44.0625C44.3111 27.1875 44.5496 27.2863 44.7254 27.4621C44.9012 27.6379 45 27.8764 45 28.125C45 28.3736 44.9012 28.6121 44.7254 28.7879C44.5496 28.9637 44.3111 29.0625 44.0625 29.0625H41.25V30.9375H44.0625C44.3111 30.9375 44.5496 31.0363 44.7254 31.2121C44.9012 31.3879 45 31.6264 45 31.875C45 32.1236 44.9012 32.3621 44.7254 32.5379C44.5496 32.7137 44.3111 32.8125 44.0625 32.8125H41.25V34.6875H44.0625C44.3111 34.6875 44.5496 34.7863 44.7254 34.9621C44.9012 35.1379 45 35.3764 45 35.625C45 35.8736 44.9012 36.1121 44.7254 36.2879C44.5496 36.4637 44.3111 36.5625 44.0625 36.5625H41.25C41.25 37.8057 40.7561 38.998 39.8771 39.8771C38.998 40.7561 37.8057 41.25 36.5625 41.25V44.0625C36.5625 44.3111 36.4637 44.5496 36.2879 44.7254C36.1121 44.9012 35.8736 45 35.625 45C35.3764 45 35.1379 44.9012 34.9621 44.7254C34.7863 44.5496 34.6875 44.3111 34.6875 44.0625V41.25H32.8125V44.0625C32.8125 44.3111 32.7137 44.5496 32.5379 44.7254C32.3621 44.9012 32.1236 45 31.875 45C31.6264 45 31.3879 44.9012 31.2121 44.7254C31.0363 44.5496 30.9375 44.3111 30.9375 44.0625V41.25H29.0625V44.0625C29.0625 44.3111 28.9637 44.5496 28.7879 44.7254C28.6121 44.9012 28.3736 45 28.125 45C27.8764 45 27.6379 44.9012 27.4621 44.7254C27.2863 44.5496 27.1875 44.3111 27.1875 44.0625V41.25H25.3125V44.0625C25.3125 44.3111 25.2137 44.5496 25.0379 44.7254C24.8621 44.9012 24.6236 45 24.375 45C24.1264 45 23.8879 44.9012 23.7121 44.7254C23.5363 44.5496 23.4375 44.3111 23.4375 44.0625V41.25C22.1943 41.25 21.002 40.7561 20.1229 39.8771C19.2439 38.998 18.75 37.8057 18.75 36.5625H15.9375C15.6889 36.5625 15.4504 36.4637 15.2746 36.2879C15.0988 36.1121 15 35.8736 15 35.625C15 35.3764 15.0988 35.1379 15.2746 34.9621C15.4504 34.7863 15.6889 34.6875 15.9375 34.6875H18.75V32.8125H15.9375C15.6889 32.8125 15.4504 32.7137 15.2746 32.5379C15.0988 32.3621 15 32.1236 15 31.875C15 31.6264 15.0988 31.3879 15.2746 31.2121C15.4504 31.0363 15.6889 30.9375 15.9375 30.9375H18.75V29.0625H15.9375C15.6889 29.0625 15.4504 28.9637 15.2746 28.7879C15.0988 28.6121 15 28.3736 15 28.125C15 27.8764 15.0988 27.6379 15.2746 27.4621C15.4504 27.2863 15.6889 27.1875 15.9375 27.1875H18.75V25.3125H15.9375C15.6889 25.3125 15.4504 25.2137 15.2746 25.0379C15.0988 24.8621 15 24.6236 15 24.375C15 24.1264 15.0988 23.8879 15.2746 23.7121C15.4504 23.5363 15.6889 23.4375 15.9375 23.4375H18.75C18.75 22.1943 19.2439 21.002 20.1229 20.1229C21.002 19.2439 22.1943 18.75 23.4375 18.75V15.9375C23.4375 15.6889 23.5363 15.4504 23.7121 15.2746C23.8879 15.0988 24.1264 15 24.375 15V15ZM23.4375 20.625C22.6916 20.625 21.9762 20.9213 21.4488 21.4488C20.9213 21.9762 20.625 22.6916 20.625 23.4375V36.5625C20.625 37.3084 20.9213 38.0238 21.4488 38.5512C21.9762 39.0787 22.6916 39.375 23.4375 39.375H36.5625C37.3084 39.375 38.0238 39.0787 38.5512 38.5512C39.0787 38.0238 39.375 37.3084 39.375 36.5625V23.4375C39.375 22.6916 39.0787 21.9762 38.5512 21.4488C38.0238 20.9213 37.3084 20.625 36.5625 20.625H23.4375ZM24.375 27.1875C24.375 26.4416 24.6713 25.7262 25.1988 25.1988C25.7262 24.6713 26.4416 24.375 27.1875 24.375H32.8125C33.5584 24.375 34.2738 24.6713 34.8012 25.1988C35.3287 25.7262 35.625 26.4416 35.625 27.1875V32.8125C35.625 33.5584 35.3287 34.2738 34.8012 34.8012C34.2738 35.3287 33.5584 35.625 32.8125 35.625H27.1875C26.4416 35.625 25.7262 35.3287 25.1988 34.8012C24.6713 34.2738 24.375 33.5584 24.375 32.8125V27.1875ZM27.1875 26.25C26.9389 26.25 26.7004 26.3488 26.5246 26.5246C26.3488 26.7004 26.25 26.9389 26.25 27.1875V32.8125C26.25 33.0611 26.3488 33.2996 26.5246 33.4754C26.7004 33.6512 26.9389 33.75 27.1875 33.75H32.8125C33.0611 33.75 33.2996 33.6512 33.4754 33.4754C33.6512 33.2996 33.75 33.0611 33.75 32.8125V27.1875C33.75 26.9389 33.6512 26.7004 33.4754 26.5246C33.2996 26.3488 33.0611 26.25 32.8125 26.25H27.1875Z" fill="white"/>
</g>
<defs>
<clipPath id="clip0_23_2750">
<rect width="30" height="30" fill="white" transform="translate(15 15)"/>
</clipPath>
</defs>
</svg>
