<svg width="70" height="70" viewBox="0 0 70 70" fill="none" xmlns="http://www.w3.org/2000/svg">
<path d="M0 35C0 15.67 15.67 0 35 0C54.33 0 70 15.67 70 35C70 54.33 54.33 70 35 70C15.67 70 0 54.33 0 35Z" fill="url(#paint0_linear_3475_8008)"/>
<g filter="url(#filter0_d_3475_8008)">
<mask id="path-2-inside-1_3475_8008" fill="white">
<path d="M43.3992 32.5545C43.3564 32.4575 43.2886 32.3715 43.2015 32.3038C43.1145 32.2361 43.0108 32.1888 42.8995 32.1659C42.7881 32.143 42.6723 32.1452 42.5621 32.1723C42.4518 32.1994 42.3504 32.2507 42.2665 32.3216L37.4358 36.4078L35.1409 35.9561L34.6481 33.8526L39.106 29.4246C39.1834 29.3477 39.2393 29.2547 39.2688 29.1537C39.2984 29.0526 39.3008 28.9465 39.2759 28.8444C39.2509 28.7423 39.1993 28.6473 39.1254 28.5675C39.0516 28.4878 38.9577 28.4256 38.8519 28.3863C37.32 27.8171 35.6366 27.6837 34.0208 28.0035C32.405 28.3233 30.9317 29.0816 29.7925 30.1795C28.6533 31.2774 27.901 32.6643 27.6336 34.1595C27.3661 35.6547 27.5959 37.1891 28.2929 38.563L21.0721 44.2773C21.0591 44.287 21.0474 44.2978 21.0344 44.3096C20.7066 44.61 20.4465 44.9666 20.269 45.3591C20.0915 45.7516 20.0001 46.1723 20 46.5972C19.9998 47.4553 20.3715 48.2784 21.0333 48.8853C21.6951 49.4922 22.5928 49.8333 23.529 49.8335C24.4651 49.8337 25.3631 49.493 26.0252 48.8864C26.0381 48.8745 26.0499 48.8637 26.0605 48.8519L32.2945 42.2331C33.7933 42.872 35.4673 43.0826 37.0986 42.8375C38.7298 42.5923 40.2428 41.9028 41.4406 40.8586C42.6384 39.8144 43.4656 38.4639 43.8145 36.9828C44.1634 35.5017 44.0179 33.9587 43.3969 32.5545H43.3992ZM35.7643 41.6379C34.6124 41.6375 33.4794 41.3697 32.4709 40.8595C32.3291 40.7875 32.1646 40.7625 32.005 40.7886C31.8454 40.8147 31.7005 40.8904 31.5946 41.0029L28.3024 44.4945L25.0101 47.9861C24.6103 48.3372 24.0764 48.5308 23.5227 48.5253C22.9691 48.5199 22.4398 48.3159 22.0483 47.957C21.6568 47.5982 21.4343 47.113 21.4283 46.6056C21.4224 46.0981 21.6336 45.6087 22.0166 45.2422L29.6338 39.211C29.7575 39.1136 29.8406 38.9799 29.8689 38.8327C29.8972 38.6855 29.869 38.5338 29.7891 38.4035C29.1504 37.3444 28.8606 36.1382 28.9549 34.9312C29.0493 33.7241 29.5237 32.5681 30.3206 31.6033C31.1175 30.6385 32.2027 29.9064 33.4446 29.4958C34.6864 29.0851 36.0316 29.0136 37.317 29.2898L33.3625 33.2208C33.2859 33.297 33.2304 33.389 33.2008 33.4891C33.1711 33.5891 33.1681 33.6941 33.1919 33.7954L33.8565 36.6364C33.885 36.7583 33.9513 36.8701 34.0475 36.9583C34.1437 37.0465 34.2657 37.1073 34.3987 37.1334L37.4981 37.7426C37.6086 37.7645 37.7232 37.7617 37.8323 37.7345C37.9415 37.7073 38.0418 37.6564 38.125 37.5862L42.4088 33.9615C42.6414 34.8789 42.6451 35.8327 42.4196 36.7516C42.1942 37.6705 41.7454 38.531 41.1067 39.2689C40.4681 40.0067 39.656 40.603 38.731 41.0132C37.806 41.4233 36.7919 41.6369 35.7643 41.6379Z"/>
</mask>
<path d="M43.3992 32.5545C43.3564 32.4575 43.2886 32.3715 43.2015 32.3038C43.1145 32.2361 43.0108 32.1888 42.8995 32.1659C42.7881 32.143 42.6723 32.1452 42.5621 32.1723C42.4518 32.1994 42.3504 32.2507 42.2665 32.3216L37.4358 36.4078L35.1409 35.9561L34.6481 33.8526L39.106 29.4246C39.1834 29.3477 39.2393 29.2547 39.2688 29.1537C39.2984 29.0526 39.3008 28.9465 39.2759 28.8444C39.2509 28.7423 39.1993 28.6473 39.1254 28.5675C39.0516 28.4878 38.9577 28.4256 38.8519 28.3863C37.32 27.8171 35.6366 27.6837 34.0208 28.0035C32.405 28.3233 30.9317 29.0816 29.7925 30.1795C28.6533 31.2774 27.901 32.6643 27.6336 34.1595C27.3661 35.6547 27.5959 37.1891 28.2929 38.563L21.0721 44.2773C21.0591 44.287 21.0474 44.2978 21.0344 44.3096C20.7066 44.61 20.4465 44.9666 20.269 45.3591C20.0915 45.7516 20.0001 46.1723 20 46.5972C19.9998 47.4553 20.3715 48.2784 21.0333 48.8853C21.6951 49.4922 22.5928 49.8333 23.529 49.8335C24.4651 49.8337 25.3631 49.493 26.0252 48.8864C26.0381 48.8745 26.0499 48.8637 26.0605 48.8519L32.2945 42.2331C33.7933 42.872 35.4673 43.0826 37.0986 42.8375C38.7298 42.5923 40.2428 41.9028 41.4406 40.8586C42.6384 39.8144 43.4656 38.4639 43.8145 36.9828C44.1634 35.5017 44.0179 33.9587 43.3969 32.5545H43.3992ZM35.7643 41.6379C34.6124 41.6375 33.4794 41.3697 32.4709 40.8595C32.3291 40.7875 32.1646 40.7625 32.005 40.7886C31.8454 40.8147 31.7005 40.8904 31.5946 41.0029L28.3024 44.4945L25.0101 47.9861C24.6103 48.3372 24.0764 48.5308 23.5227 48.5253C22.9691 48.5199 22.4398 48.3159 22.0483 47.957C21.6568 47.5982 21.4343 47.113 21.4283 46.6056C21.4224 46.0981 21.6336 45.6087 22.0166 45.2422L29.6338 39.211C29.7575 39.1136 29.8406 38.9799 29.8689 38.8327C29.8972 38.6855 29.869 38.5338 29.7891 38.4035C29.1504 37.3444 28.8606 36.1382 28.9549 34.9312C29.0493 33.7241 29.5237 32.5681 30.3206 31.6033C31.1175 30.6385 32.2027 29.9064 33.4446 29.4958C34.6864 29.0851 36.0316 29.0136 37.317 29.2898L33.3625 33.2208C33.2859 33.297 33.2304 33.389 33.2008 33.4891C33.1711 33.5891 33.1681 33.6941 33.1919 33.7954L33.8565 36.6364C33.885 36.7583 33.9513 36.8701 34.0475 36.9583C34.1437 37.0465 34.2657 37.1073 34.3987 37.1334L37.4981 37.7426C37.6086 37.7645 37.7232 37.7617 37.8323 37.7345C37.9415 37.7073 38.0418 37.6564 38.125 37.5862L42.4088 33.9615C42.6414 34.8789 42.6451 35.8327 42.4196 36.7516C42.1942 37.6705 41.7454 38.531 41.1067 39.2689C40.4681 40.0067 39.656 40.603 38.731 41.0132C37.806 41.4233 36.7919 41.6369 35.7643 41.6379Z" fill="white"/>
<path d="M43.3992 32.5545V35.0545H47.2354L45.6863 31.545L43.3992 32.5545ZM42.2665 32.3216L40.6524 30.4125L40.652 30.4129L42.2665 32.3216ZM37.4358 36.4078L36.9529 38.8607L38.1324 39.0929L39.0503 38.3165L37.4358 36.4078ZM35.1409 35.9561L32.7068 36.5264L33.0749 38.0973L34.6581 38.409L35.1409 35.9561ZM34.6481 33.8526L32.8863 32.0789L31.8954 33.0631L32.214 34.4229L34.6481 33.8526ZM39.106 29.4246L40.8678 31.1983L40.8682 31.1979L39.106 29.4246ZM38.8519 28.3863L37.9811 30.7298L37.9826 30.7303L38.8519 28.3863ZM28.2929 38.563L29.8443 40.5235L31.4473 39.2549L30.5224 37.4319L28.2929 38.563ZM21.0721 44.2773L22.572 46.2773L22.598 46.2578L22.6235 46.2377L21.0721 44.2773ZM21.0344 44.3096L22.7233 46.1529L22.7237 46.1525L21.0344 44.3096ZM20 46.5972L17.5 46.5966L20 46.5972ZM26.0252 48.8864L27.714 50.7297L27.7144 50.7293L26.0252 48.8864ZM26.0605 48.8519L24.2406 47.1378L24.2177 47.1621L24.1954 47.1871L26.0605 48.8519ZM32.2945 42.2331L33.2748 39.9333L31.6704 39.2494L30.4746 40.519L32.2945 42.2331ZM43.3969 32.5545V30.0545H39.5577L41.1105 33.5656L43.3969 32.5545ZM35.7643 41.6379L35.7634 44.1379L35.7668 44.1379L35.7643 41.6379ZM32.4709 40.8595L31.3393 43.0888L31.3424 43.0903L32.4709 40.8595ZM31.5946 41.0029L33.4135 42.718L33.4152 42.7162L31.5946 41.0029ZM25.0101 47.9861L26.6597 49.8646L26.7482 49.7869L26.829 49.7012L25.0101 47.9861ZM22.0166 45.2422L20.4647 43.2822L20.3729 43.3549L20.2883 43.4358L22.0166 45.2422ZM29.6338 39.211L28.0868 37.2471L28.0819 37.251L29.6338 39.211ZM29.7891 38.4035L27.6483 39.6946L27.653 39.7024L27.6578 39.7102L29.7891 38.4035ZM37.317 29.2898L39.0794 31.0629L42.3478 27.814L37.8423 26.8456L37.317 29.2898ZM33.3625 33.2208L31.6 31.4478L31.5983 31.4494L33.3625 33.2208ZM33.1919 33.7954L35.6262 33.226L35.6253 33.222L33.1919 33.7954ZM33.8565 36.6364L36.2909 36.0674L36.2908 36.0669L33.8565 36.6364ZM34.3987 37.1334L34.8809 34.6803L34.8805 34.6803L34.3987 37.1334ZM37.4981 37.7426L37.9836 35.2902L37.9802 35.2895L37.4981 37.7426ZM38.125 37.5862L39.7371 39.4971L39.7399 39.4947L38.125 37.5862ZM42.4088 33.9615L44.8322 33.3472L43.8489 29.4681L40.794 32.053L42.4088 33.9615ZM28.3024 44.4945L26.4834 42.7794H26.4834L28.3024 44.4945ZM43.3992 32.5545L45.6863 31.545C45.4695 31.0538 45.1364 30.6414 44.7361 30.3302L43.2015 32.3038L41.667 34.2774C41.4408 34.1015 41.2433 33.8612 41.1121 33.564L43.3992 32.5545ZM43.2015 32.3038L44.7361 30.3302C44.3367 30.0197 43.8778 29.8147 43.4029 29.7171L42.8995 32.1659L42.396 34.6147C42.1439 34.5629 41.8923 34.4526 41.667 34.2774L43.2015 32.3038ZM42.8995 32.1659L43.4029 29.7171C42.9282 29.6195 42.4365 29.6287 41.9649 29.7447L42.5621 32.1723L43.1593 34.6C42.9082 34.6617 42.6479 34.6665 42.396 34.6147L42.8995 32.1659ZM42.5621 32.1723L41.9649 29.7447C41.4931 29.8608 41.0407 30.0842 40.6524 30.4125L42.2665 32.3216L43.8806 34.2307C43.6601 34.4171 43.4106 34.5381 43.1593 34.6L42.5621 32.1723ZM42.2665 32.3216L40.652 30.4129L35.8212 34.4991L37.4358 36.4078L39.0503 38.3165L43.8811 34.2303L42.2665 32.3216ZM37.4358 36.4078L37.9186 33.9549L35.6238 33.5031L35.1409 35.9561L34.6581 38.409L36.9529 38.8607L37.4358 36.4078ZM35.1409 35.9561L37.575 35.3858L37.0822 33.2823L34.6481 33.8526L32.214 34.4229L32.7068 36.5264L35.1409 35.9561ZM34.6481 33.8526L36.4099 35.6263L40.8678 31.1983L39.106 29.4246L37.3442 27.6509L32.8863 32.0789L34.6481 33.8526ZM39.106 29.4246L40.8682 31.1979C41.2337 30.8347 41.5156 30.3772 41.6681 29.8562L39.2688 29.1537L36.8696 28.4512C36.9629 28.1323 37.1331 27.8607 37.3438 27.6513L39.106 29.4246ZM39.2688 29.1537L41.6681 29.8562C41.8211 29.3338 41.834 28.7804 41.7042 28.2502L39.2759 28.8444L36.8475 29.4387C36.7677 29.1126 36.7758 28.7715 36.8696 28.4512L39.2688 29.1537ZM39.2759 28.8444L41.7042 28.2502C41.5748 27.7213 41.3121 27.2497 40.9603 26.8695L39.1254 28.5675L37.2906 30.2656C37.0864 30.0449 36.927 29.7634 36.8475 29.4387L39.2759 28.8444ZM39.1254 28.5675L40.9603 26.8695C40.6095 26.4904 40.1806 26.2127 39.7212 26.0423L38.8519 28.3863L37.9826 30.7303C37.7348 30.6384 37.4937 30.4851 37.2906 30.2656L39.1254 28.5675ZM38.8519 28.3863L39.7227 26.0429C37.7539 25.3113 35.6009 25.1423 33.5354 25.5511L34.0208 28.0035L34.5062 30.456C35.6723 30.2251 36.8861 30.3229 37.9812 30.7298L38.8519 28.3863ZM34.0208 28.0035L33.5354 25.5511C31.4695 25.96 29.5567 26.9346 28.0576 28.3795L29.7925 30.1795L31.5274 31.9796C32.3066 31.2285 33.3405 30.6867 34.5062 30.456L34.0208 28.0035ZM29.7925 30.1795L28.0576 28.3795C26.556 29.8267 25.5369 31.6831 25.1727 33.7193L27.6336 34.1595L30.0945 34.5997C30.2652 33.6455 30.7506 32.7282 31.5274 31.9796L29.7925 30.1795ZM27.6336 34.1595L25.1727 33.7193C24.808 35.7577 25.1243 37.843 26.0635 39.6942L28.2929 38.563L30.5224 37.4319C30.0675 36.5353 29.9242 35.5517 30.0945 34.5997L27.6336 34.1595ZM28.2929 38.563L26.7416 36.6026L19.5207 42.3168L21.0721 44.2773L22.6235 46.2377L29.8443 40.5235L28.2929 38.563ZM21.0721 44.2773L19.5721 42.2772C19.5015 42.3302 19.4457 42.3774 19.4092 42.4093C19.3761 42.4381 19.3473 42.4647 19.3452 42.4667L21.0344 44.3096L22.7237 46.1525C22.7345 46.1426 22.718 46.1579 22.6974 46.176C22.6732 46.1971 22.6297 46.234 22.572 46.2773L21.0721 44.2773ZM21.0344 44.3096L19.3456 42.4663C18.7766 42.9876 18.3124 43.6184 17.9911 44.3291L20.269 45.3591L22.5469 46.3892C22.5806 46.3148 22.6366 46.2324 22.7233 46.1529L21.0344 44.3096ZM20.269 45.3591L17.9911 44.3291C17.6694 45.0404 17.5002 45.8116 17.5 46.5966L20 46.5972L22.5 46.5979C22.5 46.533 22.5136 46.4628 22.5469 46.3892L20.269 45.3591ZM20 46.5972L17.5 46.5966C17.4996 48.1915 18.1924 49.6721 19.3436 50.7278L21.0333 48.8853L22.723 47.0428C22.5506 46.8847 22.5 46.7192 22.5 46.5979L20 46.5972ZM21.0333 48.8853L19.3436 50.7278C20.4875 51.7769 21.9961 52.3332 23.5284 52.3335L23.529 49.8335L23.5295 47.3335C23.1896 47.3334 22.9027 47.2076 22.723 47.0428L21.0333 48.8853ZM23.529 49.8335L23.5284 52.3335C25.0608 52.3338 26.5696 51.7782 27.714 50.7297L26.0252 48.8864L24.3363 47.0431C24.1565 47.2078 23.8695 47.3336 23.5295 47.3335L23.529 49.8335ZM26.0252 48.8864L27.7144 50.7293C27.7164 50.7275 27.7456 50.701 27.7772 50.6705C27.8121 50.6369 27.8652 50.5843 27.9255 50.5167L26.0605 48.8519L24.1954 47.1871C24.2452 47.1313 24.2871 47.09 24.3102 47.0678C24.3301 47.0486 24.3469 47.0334 24.3359 47.0435L26.0252 48.8864ZM26.0605 48.8519L27.8803 50.566L34.1143 43.9472L32.2945 42.2331L30.4746 40.519L24.2406 47.1378L26.0605 48.8519ZM32.2945 42.2331L31.3141 44.5329C33.2445 45.3557 35.387 45.6228 37.4701 45.3097L37.0986 42.8375L36.727 40.3652C35.5477 40.5425 34.3422 40.3883 33.2748 39.9333L32.2945 42.2331ZM37.0986 42.8375L37.4701 45.3097C39.5536 44.9966 41.5124 44.1126 43.0834 42.743L41.4406 40.8586L39.7978 38.9741C38.9732 39.6929 37.9061 40.188 36.727 40.3652L37.0986 42.8375ZM41.4406 40.8586L43.0834 42.743C44.6568 41.3714 45.7735 39.5696 46.2479 37.5561L43.8145 36.9828L41.3811 36.4095C41.1576 37.3581 40.62 38.2573 39.7978 38.9741L41.4406 40.8586ZM43.8145 36.9828L46.2479 37.5561C46.7229 35.5398 46.5224 33.4407 45.6833 31.5433L43.3969 32.5545L41.1105 33.5656C41.5134 34.4767 41.6039 35.4637 41.3811 36.4095L43.8145 36.9828ZM43.3969 32.5545V35.0545H43.3992V32.5545V30.0545H43.3969V32.5545ZM35.7643 41.6379L35.7653 39.1379C34.9974 39.1376 34.2515 38.9586 33.5994 38.6287L32.4709 40.8595L31.3424 43.0903C32.7074 43.7808 34.2275 44.1373 35.7634 44.1379L35.7643 41.6379ZM32.4709 40.8595L33.6024 38.6303C32.9787 38.3136 32.2754 38.2111 31.6013 38.3214L32.005 40.7886L32.4087 43.2558C32.0537 43.3139 31.6795 43.2614 31.3393 43.0888L32.4709 40.8595ZM32.005 40.7886L31.6013 38.3214C30.9264 38.4318 30.2749 38.7574 29.774 39.2896L31.5946 41.0029L33.4152 42.7162C33.1261 43.0234 32.7643 43.1976 32.4087 43.2558L32.005 40.7886ZM25.0101 47.9861L23.3605 46.1076C23.4038 46.0696 23.4433 46.0495 23.472 46.0391C23.5008 46.0287 23.5258 46.0252 23.5473 46.0255L23.5227 48.5253L23.4982 51.0252C24.6399 51.0364 25.7772 50.6396 26.6597 49.8646L25.0101 47.9861ZM23.5227 48.5253L23.5473 46.0255C23.5688 46.0257 23.5943 46.0296 23.6239 46.041C23.6534 46.0524 23.6938 46.074 23.7376 46.1141L22.0483 47.957L20.3591 49.8C21.2262 50.5948 22.3564 51.014 23.4982 51.0252L23.5227 48.5253ZM22.0483 47.957L23.7376 46.1141C23.8286 46.1975 23.9256 46.3579 23.9282 46.5763L21.4283 46.6056L18.9285 46.6348C18.9429 47.8681 19.4851 48.9988 20.3591 49.8L22.0483 47.957ZM21.4283 46.6056L23.9282 46.5763C23.9307 46.7951 23.837 46.9604 23.7449 47.0486L22.0166 45.2422L20.2883 43.4358C19.4301 44.2569 18.9141 45.401 18.9285 46.6348L21.4283 46.6056ZM22.0166 45.2422L23.5685 47.2022L31.1857 41.171L29.6338 39.211L28.0819 37.251L20.4647 43.2822L22.0166 45.2422ZM29.6338 39.211L31.1808 41.1749C31.7509 40.7259 32.1761 40.0737 32.3239 39.3047L29.8689 38.8327L27.4139 38.3607C27.5051 37.8861 27.7642 37.5013 28.0868 37.2471L29.6338 39.211ZM29.8689 38.8327L32.3239 39.3047C32.4725 38.5318 32.3193 37.7473 31.9204 37.0968L29.7891 38.4035L27.6578 39.7102C27.4187 39.3203 27.3219 38.8392 27.4139 38.3607L29.8689 38.8327ZM29.7891 38.4035L31.9299 37.1123C31.5542 36.4895 31.3945 35.8013 31.4473 35.126L28.9549 34.9312L26.4625 34.7364C26.3266 36.4751 26.7465 38.1993 27.6483 39.6946L29.7891 38.4035ZM28.9549 34.9312L31.4473 35.126C31.5002 34.4498 31.767 33.7778 32.2481 33.1954L30.3206 31.6033L28.3931 30.0112C27.2803 31.3584 26.5984 32.9985 26.4625 34.7364L28.9549 34.9312ZM30.3206 31.6033L32.2481 33.1954C32.7313 32.6104 33.4132 32.1393 34.2294 31.8694L33.4446 29.4958L32.6597 27.1222C30.9922 27.6736 29.5037 28.6667 28.3931 30.0112L30.3206 31.6033ZM33.4446 29.4958L34.2294 31.8694C35.0464 31.5992 35.9392 31.5508 36.7916 31.734L37.317 29.2898L37.8423 26.8456C36.124 26.4764 34.3265 26.571 32.6597 27.1222L33.4446 29.4958ZM37.317 29.2898L35.5545 27.5168L31.6 31.4478L33.3625 33.2208L35.125 34.9938L39.0794 31.0629L37.317 29.2898ZM33.3625 33.2208L31.5983 31.4494C31.2367 31.8096 30.9571 32.2624 30.8041 32.7777L33.2008 33.4891L35.5974 34.2004C35.5038 34.5157 35.3351 34.7845 35.1266 34.9922L33.3625 33.2208ZM33.2008 33.4891L30.8041 32.7777C30.6507 33.2945 30.6345 33.8424 30.7586 34.3688L33.1919 33.7954L35.6253 33.222C35.7016 33.5459 35.6914 33.8836 35.5974 34.2004L33.2008 33.4891ZM33.1919 33.7954L30.7576 34.3649L31.4222 37.2058L33.8565 36.6364L36.2908 36.0669L35.6262 33.226L33.1919 33.7954ZM33.8565 36.6364L31.4221 37.2053C31.5701 37.8387 31.9077 38.3882 32.3583 38.8012L34.0475 36.9583L35.7368 35.1154C35.995 35.352 36.1999 35.678 36.2909 36.0674L33.8565 36.6364ZM34.0475 36.9583L32.3583 38.8012C32.8068 39.2123 33.3514 39.4755 33.917 39.5866L34.3987 37.1334L34.8805 34.6803C35.18 34.7391 35.4807 34.8806 35.7368 35.1154L34.0475 36.9583ZM34.3987 37.1334L33.9166 39.5865L37.016 40.1956L37.4981 37.7426L37.9802 35.2895L34.8809 34.6803L34.3987 37.1334ZM37.4981 37.7426L37.0126 40.195C37.4833 40.2882 37.9703 40.2766 38.4372 40.1602L37.8323 37.7345L37.2275 35.3087C37.4762 35.2467 37.7339 35.2407 37.9836 35.2902L37.4981 37.7426ZM37.8323 37.7345L38.4372 40.1602C38.9044 40.0437 39.3521 39.8218 39.7371 39.4971L38.125 37.5862L36.513 35.6754C36.7315 35.491 36.9786 35.3708 37.2275 35.3087L37.8323 37.7345ZM38.125 37.5862L39.7399 39.4947L44.0237 35.8699L42.4088 33.9615L40.794 32.053L36.5102 35.6778L38.125 37.5862ZM42.4088 33.9615L39.9855 34.5758C40.1175 35.0965 40.1195 35.6347 39.9916 36.1559L42.4196 36.7516L44.8476 37.3473C45.1707 36.0306 45.1653 34.6614 44.8322 33.3472L42.4088 33.9615ZM42.4196 36.7516L39.9916 36.1559C39.8635 36.678 39.6045 37.1845 39.2165 37.6327L41.1067 39.2689L42.997 40.905C43.8863 39.8775 44.5248 38.663 44.8476 37.3473L42.4196 36.7516ZM41.1067 39.2689L39.2165 37.6327C38.8277 38.0819 38.3188 38.4612 37.7175 38.7278L38.731 41.0132L39.7444 43.2985C40.9932 42.7448 42.1084 41.9315 42.997 40.905L41.1067 39.2689ZM38.731 41.0132L37.7175 38.7278C37.1159 38.9946 36.4467 39.1373 35.7618 39.1379L35.7643 41.6379L35.7668 44.1379C37.1371 44.1366 38.496 43.8521 39.7444 43.2985L38.731 41.0132ZM31.5946 41.0029L29.7757 39.2878L26.4834 42.7794L28.3024 44.4945L30.1213 46.2096L33.4135 42.718L31.5946 41.0029ZM28.3024 44.4945L26.4834 42.7794L23.1912 46.271L25.0101 47.9861L26.829 49.7012L30.1213 46.2096L28.3024 44.4945Z" fill="white" mask="url(#path-2-inside-1_3475_8008)"/>
<path d="M39.1926 20.1759C39.3137 20.1474 39.4406 20.1483 39.5617 20.1774C40.7644 20.4724 41.9237 20.9255 43.0074 21.5248C43.1172 21.5844 43.2114 21.6696 43.2824 21.7725C43.3535 21.8754 43.3992 21.9935 43.416 22.1175L43.8401 25.3539C44.0263 25.5209 44.2062 25.695 44.3803 25.8746L47.6306 26.1713C47.755 26.1833 47.8755 26.2238 47.981 26.2908C48.0866 26.3578 48.1745 26.4494 48.2384 26.5568C48.881 27.6175 49.3794 28.7593 49.7207 29.9515C49.755 30.0712 49.761 30.1976 49.7378 30.3199C49.7146 30.4422 49.663 30.5577 49.5872 30.6564L47.6033 33.2358C47.6161 33.4861 47.6209 33.7383 47.6178 33.9889L49.703 36.4976C49.7824 36.5932 49.8381 36.7061 49.866 36.8272C49.8939 36.9484 49.8932 37.0746 49.8636 37.1954C49.5688 38.398 49.1159 39.5567 48.5162 40.6401C48.4565 40.7501 48.3715 40.845 48.2685 40.9161C48.1655 40.9872 48.0466 41.0329 47.9226 41.0496L44.6861 41.4728C44.519 41.659 44.3451 41.8398 44.1654 42.0139L43.8687 45.2623C43.8568 45.3869 43.8154 45.5071 43.7483 45.6127C43.6812 45.7184 43.5899 45.8072 43.4822 45.871C42.4234 46.5129 41.2835 47.0108 40.0934 47.3524C40.0272 47.371 39.9586 47.3822 39.8899 47.3837C39.7094 47.3874 39.5318 47.3288 39.3885 47.2189L36.8014 45.2291C36.5511 45.2419 36.2988 45.2467 36.0483 45.2436L33.5543 47.3241C33.4587 47.4034 33.3457 47.4592 33.2246 47.4871C33.1034 47.5149 32.9763 47.5144 32.8555 47.4847C31.8443 47.2366 30.8651 46.8752 29.9347 46.4107L31.1925 45.2475C31.7264 45.4814 32.2758 45.6787 32.8376 45.836L35.2606 43.8173C35.4122 43.6915 35.6056 43.6257 35.8024 43.6338C36.1966 43.6488 36.5919 43.6417 36.9853 43.6116L37.0331 43.6101C37.2137 43.6064 37.3902 43.665 37.5336 43.7749L40.0345 45.6975C40.8268 45.4439 41.5927 45.1114 42.3191 44.7059L42.607 41.5659C42.6258 41.3697 42.7173 41.1875 42.8627 41.0546C43.1528 40.7869 43.4268 40.5019 43.6831 40.2018C43.8104 40.0512 43.9894 39.9526 44.1847 39.9261L47.3137 39.5176L47.3068 39.5175C47.6845 38.777 47.9868 38.0002 48.2102 37.1996L46.1925 34.7765C46.0667 34.6249 46.0008 34.4316 46.009 34.2348C46.0239 33.8407 46.0168 33.4461 45.9867 33.0529C45.9709 32.8566 46.0283 32.6608 46.1481 32.5045L48.0717 30.0037C47.8175 29.2147 47.4849 28.453 47.08 27.7297L43.94 27.4409C43.7438 27.422 43.5606 27.3316 43.4276 27.1861C43.1599 26.8961 42.8751 26.622 42.5749 26.3657C42.4244 26.2385 42.3266 26.0594 42.3002 25.8641L41.8906 22.7362C41.1502 22.3577 40.3735 22.054 39.5728 21.8299L37.1497 23.8476C36.9981 23.9734 36.8047 24.0382 36.6079 24.0301C36.2136 24.0152 35.8175 24.0232 35.4241 24.0533C35.2278 24.069 35.032 24.0109 34.8757 23.891L32.3749 21.9684C31.5849 22.2223 30.8222 22.555 30.098 22.96L29.8092 26.1001C29.7903 26.2961 29.6998 26.4785 29.5544 26.6114C29.2643 26.8791 28.9894 27.164 28.733 27.4642C28.6057 27.6147 28.4268 27.7125 28.2314 27.7389L25.1055 28.1484C24.7269 28.8887 24.4234 29.6656 24.1992 30.4663L26.2179 32.8894C26.3437 33.041 26.4086 33.2343 26.4004 33.4311C26.3854 33.8252 26.3935 34.2198 26.4236 34.613C26.4394 34.8095 26.3813 35.005 26.2613 35.1614L24.3386 37.6622C24.5697 38.3807 24.8654 39.0768 25.2218 39.7418L24.021 40.8518C23.4517 39.8662 23.0029 38.8148 22.6886 37.7202C22.6544 37.6008 22.6494 37.4749 22.6725 37.3528C22.6957 37.2306 22.7473 37.1151 22.8231 37.0163L24.8138 34.435C24.8011 34.1847 24.7952 33.9326 24.7984 33.6819L22.7111 31.1752C22.6329 31.0804 22.5779 30.9682 22.5501 30.8485C22.5223 30.7288 22.5221 30.6038 22.5505 30.4842C22.8456 29.2818 23.2994 28.1239 23.8989 27.0405C23.9584 26.9306 24.0427 26.8356 24.1456 26.7645C24.2485 26.6934 24.3676 26.6478 24.4915 26.6309L27.73 26.2C27.8971 26.0147 28.0701 25.8338 28.2497 25.6589L28.5415 22.4104C28.5535 22.2859 28.5949 22.1656 28.662 22.06C28.729 21.9544 28.8204 21.8655 28.928 21.8017C29.9889 21.1592 31.1313 20.6605 32.3237 20.3194C32.4431 20.2852 32.5691 20.2793 32.6911 20.3023C32.8132 20.3254 32.929 20.3773 33.0276 20.4529L35.603 22.4436C35.8534 22.4308 36.1055 22.426 36.3561 22.4291L38.8629 20.3418C38.9581 20.2617 39.0715 20.2046 39.1926 20.1759Z" fill="white"/>
</g>
<defs>
<filter id="filter0_d_3475_8008" x="18" y="18.155" width="33.8867" height="33.6785" filterUnits="userSpaceOnUse" color-interpolation-filters="sRGB">
<feFlood flood-opacity="0" result="BackgroundImageFix"/>
<feColorMatrix in="SourceAlpha" type="matrix" values="0 0 0 0 0 0 0 0 0 0 0 0 0 0 0 0 0 0 127 0" result="hardAlpha"/>
<feOffset/>
<feGaussianBlur stdDeviation="1"/>
<feComposite in2="hardAlpha" operator="out"/>
<feColorMatrix type="matrix" values="0 0 0 0 0 0 0 0 0 0 0 0 0 0 0 0 0 0 0.15 0"/>
<feBlend mode="normal" in2="BackgroundImageFix" result="effect1_dropShadow_3475_8008"/>
<feBlend mode="normal" in="SourceGraphic" in2="effect1_dropShadow_3475_8008" result="shape"/>
</filter>
<linearGradient id="paint0_linear_3475_8008" x1="35" y1="0" x2="35" y2="70" gradientUnits="userSpaceOnUse">
<stop offset="0.427885" stop-color="#8C0404"/>
<stop offset="1" stop-color="#600000"/>
</linearGradient>
</defs>
</svg>
