<svg width="70" height="70" viewBox="0 0 70 70" fill="none" xmlns="http://www.w3.org/2000/svg">
<path d="M0 35C0 15.67 15.67 0 35 0C54.33 0 70 15.67 70 35C70 54.33 54.33 70 35 70C15.67 70 0 54.33 0 35Z" fill="url(#paint0_linear_2860_8035)"/>
<path d="M34.9084 22.5867C34.7803 22.5296 34.6408 22.5 34.4995 22.5C34.3583 22.5 34.2188 22.5296 34.0907 22.5867L19.559 29.0869C19.3879 29.1634 19.2439 29.2863 19.1446 29.4402C19.0454 29.5942 18.9952 29.7727 19.0004 29.9536C19.0055 30.1346 19.0657 30.3101 19.1736 30.4587C19.2814 30.6073 19.4322 30.7224 19.6075 30.7899L34.1392 36.3615C34.3705 36.4503 34.6286 36.4503 34.8599 36.3615L46.1249 32.0454V42.9285C45.611 42.9285 45.1182 43.1241 44.7548 43.4724C44.3915 43.8207 44.1873 44.2931 44.1873 44.7856V48.5H50V44.7856C50 44.2931 49.7959 43.8207 49.4325 43.4724C49.0691 43.1241 48.5763 42.9285 48.0624 42.9285V31.3006L49.3916 30.7899C49.5668 30.7224 49.7176 30.6073 49.8255 30.4587C49.9334 30.3101 49.9936 30.1346 49.9987 29.9536C50.0039 29.7727 49.9537 29.5942 49.8545 29.4402C49.7552 29.2863 49.6112 29.1634 49.44 29.0869L34.9084 22.5867ZM34.4995 34.4968L22.4053 29.8632L34.4995 24.4532L46.5938 29.8632L34.4995 34.4968Z" fill="white"/>
<path d="M26.8525 37.4997C26.7237 37.4527 26.5863 37.432 26.4489 37.4388C26.3115 37.4456 26.177 37.4798 26.0538 37.5392C25.9307 37.5987 25.8215 37.6822 25.7332 37.7844C25.6448 37.8866 25.5792 38.0054 25.5405 38.1333L24.5405 41.427C24.4704 41.6582 24.4919 41.9065 24.6006 42.1232C24.7093 42.34 24.8975 42.5097 25.1285 42.5992L34.1285 46.0867C34.3672 46.1794 34.6337 46.1794 34.8725 46.0867L43.8725 42.5992C44.1034 42.5097 44.2916 42.34 44.4004 42.1232C44.5091 41.9065 44.5305 41.6582 44.4605 41.427L43.4605 38.1333C43.4217 38.0054 43.3561 37.8866 43.2677 37.7844C43.1794 37.6822 43.0703 37.5987 42.9471 37.5392C42.824 37.4798 42.6895 37.4456 42.552 37.4388C42.4146 37.432 42.2772 37.4527 42.1485 37.4997L34.5005 40.2781L26.8525 37.4997ZM26.7165 41.1286L27.1565 39.6794L34.1485 42.2194C34.3754 42.3021 34.6256 42.3021 34.8525 42.2194L41.8445 39.6794L42.2845 41.1286L34.5005 44.1414L26.7165 41.1286Z" fill="white"/>
<defs>
<linearGradient id="paint0_linear_2860_8035" x1="35" y1="0" x2="35" y2="70" gradientUnits="userSpaceOnUse">
<stop offset="0.427885" stop-color="#8C0404"/>
<stop offset="1" stop-color="#600000"/>
</linearGradient>
</defs>
</svg>
