<svg width="60" height="60" viewBox="0 0 60 60" fill="none" xmlns="http://www.w3.org/2000/svg">
<path d="M0 30C0 13.4315 13.4315 0 30 0C46.5685 0 60 13.4315 60 30C60 46.5685 46.5685 60 30 60C13.4315 60 0 46.5685 0 30Z" fill="url(#paint0_linear_3592_8357)"/>
<path d="M40.4 18.9259H37.8V18.4444C37.8 18.0614 37.6356 17.694 37.3431 17.4231C37.0505 17.1522 36.6537 17 36.24 17C35.8263 17 35.4295 17.1522 35.1369 17.4231C34.8444 17.694 34.68 18.0614 34.68 18.4444V18.9259H25.32V18.4444C25.32 18.0614 25.1556 17.694 24.8631 17.4231C24.5705 17.1522 24.1737 17 23.76 17C23.3463 17 22.9495 17.1522 22.6569 17.4231C22.3644 17.694 22.2 18.0614 22.2 18.4444V18.9259H19.6C18.9104 18.9259 18.2491 19.1796 17.7615 19.631C17.2739 20.0825 17 20.6948 17 21.3333V40.5926C17 41.2311 17.2739 41.8434 17.7615 42.2949C18.2491 42.7464 18.9104 43 19.6 43H40.4C41.0896 43 41.7509 42.7464 42.2385 42.2949C42.7261 41.8434 43 41.2311 43 40.5926V21.3333C43 20.6948 42.7261 20.0825 42.2385 19.631C41.7509 19.1796 41.0896 18.9259 40.4 18.9259ZM22.2 21.8148C22.2 22.1979 22.3644 22.5653 22.6569 22.8362C22.9495 23.1071 23.3463 23.2593 23.76 23.2593C24.1737 23.2593 24.5705 23.1071 24.8631 22.8362C25.1556 22.5653 25.32 22.1979 25.32 21.8148H34.68C34.68 22.1979 34.8444 22.5653 35.1369 22.8362C35.4295 23.1071 35.8263 23.2593 36.24 23.2593C36.6537 23.2593 37.0505 23.1071 37.3431 22.8362C37.6356 22.5653 37.8 22.1979 37.8 21.8148H39.88V24.7037H20.12V21.8148H22.2ZM20.12 40.1111V27.5926H39.88V40.1111H20.12ZM32.08 30.963C32.08 31.3439 31.958 31.7162 31.7295 32.033C31.5009 32.3497 31.1761 32.5965 30.796 32.7423C30.4159 32.8881 29.9977 32.9262 29.5942 32.8519C29.1907 32.7776 28.8201 32.5941 28.5292 32.3248C28.2383 32.0555 28.0402 31.7123 27.96 31.3387C27.8797 30.9651 27.9209 30.5779 28.0783 30.2259C28.2358 29.874 28.5024 29.5732 28.8444 29.3616C29.1865 29.15 29.5886 29.037 30 29.037C30.5517 29.037 31.0807 29.2399 31.4708 29.6011C31.8609 29.9623 32.08 30.4522 32.08 30.963ZM38.32 30.963C38.32 31.3439 38.198 31.7162 37.9695 32.033C37.7409 32.3497 37.4161 32.5965 37.036 32.7423C36.6559 32.8881 36.2377 32.9262 35.8342 32.8519C35.4307 32.7776 35.0601 32.5941 34.7692 32.3248C34.4783 32.0555 34.2802 31.7123 34.2 31.3387C34.1197 30.9651 34.1609 30.5779 34.3183 30.2259C34.4758 29.874 34.7424 29.5732 35.0844 29.3616C35.4265 29.15 35.8286 29.037 36.24 29.037C36.7916 29.037 37.3207 29.2399 37.7108 29.6011C38.1009 29.9623 38.32 30.4522 38.32 30.963ZM25.84 36.7407C25.84 37.1217 25.718 37.494 25.4895 37.8107C25.2609 38.1274 24.9361 38.3743 24.556 38.5201C24.1759 38.6658 23.7577 38.704 23.3542 38.6297C22.9507 38.5553 22.5801 38.3719 22.2892 38.1026C21.9983 37.8332 21.8002 37.4901 21.72 37.1165C21.6397 36.7429 21.6809 36.3556 21.8383 36.0037C21.9958 35.6518 22.2624 35.351 22.6044 35.1394C22.9465 34.9278 23.3486 34.8148 23.76 34.8148C24.3117 34.8148 24.8407 35.0177 25.2308 35.3789C25.6209 35.7401 25.84 36.23 25.84 36.7407ZM32.08 36.7407C32.08 37.1217 31.958 37.494 31.7295 37.8107C31.5009 38.1274 31.1761 38.3743 30.796 38.5201C30.4159 38.6658 29.9977 38.704 29.5942 38.6297C29.1907 38.5553 28.8201 38.3719 28.5292 38.1026C28.2383 37.8332 28.0402 37.4901 27.96 37.1165C27.8797 36.7429 27.9209 36.3556 28.0783 36.0037C28.2358 35.6518 28.5024 35.351 28.8444 35.1394C29.1865 34.9278 29.5886 34.8148 30 34.8148C30.5517 34.8148 31.0807 35.0177 31.4708 35.3789C31.8609 35.7401 32.08 36.23 32.08 36.7407ZM38.32 36.7407C38.32 37.1217 38.198 37.494 37.9695 37.8107C37.7409 38.1274 37.4161 38.3743 37.036 38.5201C36.6559 38.6658 36.2377 38.704 35.8342 38.6297C35.4307 38.5553 35.0601 38.3719 34.7692 38.1026C34.4783 37.8332 34.2802 37.4901 34.2 37.1165C34.1197 36.7429 34.1609 36.3556 34.3183 36.0037C34.4758 35.6518 34.7424 35.351 35.0844 35.1394C35.4265 34.9278 35.8286 34.8148 36.24 34.8148C36.7916 34.8148 37.3207 35.0177 37.7108 35.3789C38.1009 35.7401 38.32 36.23 38.32 36.7407Z" fill="white"/>
<defs>
<linearGradient id="paint0_linear_3592_8357" x1="30" y1="0" x2="30" y2="60" gradientUnits="userSpaceOnUse">
<stop offset="0.427885" stop-color="#8C0404"/>
<stop offset="1" stop-color="#600000"/>
</linearGradient>
</defs>
</svg>
