<svg width="60" height="60" viewBox="0 0 60 60" fill="none" xmlns="http://www.w3.org/2000/svg">
<rect width="60" height="60" rx="30" fill="#8C0404"/>
<g clip-path="url(#clip0_23_2764)">
<path d="M30.8874 15.6319C30.8241 15.447 30.7045 15.2866 30.5455 15.173C30.3865 15.0594 30.196 14.9983 30.0006 14.9983C29.8051 14.9983 29.6146 15.0594 29.4556 15.173C29.2966 15.2866 29.177 15.447 29.1137 15.6319L28.0393 18.75H31.9618L30.8874 15.6319ZM37.7818 35.625H35.7981L38.4887 43.4306C38.5697 43.6658 38.7409 43.8592 38.9646 43.9682C39.1882 44.0772 39.446 44.0929 39.6812 44.0119C39.9164 43.9308 40.1098 43.7597 40.2188 43.536C40.3278 43.3124 40.3435 43.0546 40.2624 42.8194L37.7818 35.625ZM30.9381 35.625H29.0631V40.3125C29.0631 40.5612 29.1618 40.7996 29.3376 40.9754C29.5135 41.1512 29.7519 41.25 30.0006 41.25C30.2492 41.25 30.4877 41.1512 30.6635 40.9754C30.8393 40.7996 30.9381 40.5612 30.9381 40.3125V35.625ZM24.2031 35.625H22.2193L19.7387 42.8194C19.6576 43.0546 19.6733 43.3124 19.7823 43.536C19.8913 43.7597 20.0847 43.9308 20.3199 44.0119C20.5551 44.0929 20.8129 44.0772 21.0366 43.9682C21.2602 43.8592 21.4314 43.6658 21.5124 43.4306L24.2031 35.625Z" fill="white"/>
<path fill-rule="evenodd" clip-rule="evenodd" d="M41.25 20.625H18.75V33.75H41.25V20.625ZM18.75 18.75C18.2527 18.75 17.7758 18.9475 17.4242 19.2992C17.0725 19.6508 16.875 20.1277 16.875 20.625V33.75C16.875 34.2473 17.0725 34.7242 17.4242 35.0758C17.7758 35.4275 18.2527 35.625 18.75 35.625H41.25C41.7473 35.625 42.2242 35.4275 42.5758 35.0758C42.9275 34.7242 43.125 34.2473 43.125 33.75V20.625C43.125 20.1277 42.9275 19.6508 42.5758 19.2992C42.2242 18.9475 41.7473 18.75 41.25 18.75H18.75Z" fill="white"/>
</g>
<defs>
<clipPath id="clip0_23_2764">
<rect width="30" height="30" fill="white" transform="translate(15 15)"/>
</clipPath>
</defs>
</svg>
