<svg width="19" height="18" viewBox="0 0 19 18" fill="none" xmlns="http://www.w3.org/2000/svg">
<g clip-path="url(#clip0_2754_7691)">
<path fill-rule="evenodd" clip-rule="evenodd" d="M19 9C19 11.3869 17.9991 13.6761 16.2175 15.364C14.4359 17.0518 12.0196 18 9.5 18C6.98044 18 4.56408 17.0518 2.78249 15.364C1.00089 13.6761 0 11.3869 0 9C0 6.61305 1.00089 4.32387 2.78249 2.63604C4.56408 0.948212 6.98044 0 9.5 0C12.0196 0 14.4359 0.948212 16.2175 2.63604C17.9991 4.32387 19 6.61305 19 9ZM14.2856 5.59125C14.2008 5.51117 14.0998 5.44812 13.9887 5.40587C13.8775 5.36361 13.7585 5.34303 13.6388 5.34534C13.5191 5.34765 13.4011 5.37281 13.2919 5.41931C13.1826 5.46582 13.0844 5.53271 13.0031 5.616L8.87894 10.5941L6.3935 8.23837C6.22467 8.08933 6.00136 8.0082 5.77063 8.01205C5.5399 8.01591 5.31975 8.10446 5.15657 8.25905C4.9934 8.41364 4.89993 8.6222 4.89585 8.84079C4.89178 9.05938 4.97743 9.27093 5.13475 9.43088L8.27687 12.4087C8.36152 12.4888 8.46232 12.5519 8.57326 12.5942C8.68419 12.6366 8.80299 12.6573 8.92257 12.6552C9.04215 12.6531 9.16006 12.6282 9.26926 12.582C9.37847 12.5358 9.47673 12.4692 9.55819 12.3863L14.2987 6.7725C14.4603 6.61331 14.5496 6.40043 14.5474 6.17958C14.5451 5.95872 14.4516 5.74749 14.2868 5.59125H14.2856Z" fill="#1ABA1A"/>
</g>
<defs>
<clipPath id="clip0_2754_7691">
<rect width="19" height="18" fill="white"/>
</clipPath>
</defs>
</svg>
