<svg width="1289" height="270" viewBox="0 0 1289 270" fill="none" xmlns="http://www.w3.org/2000/svg">
<path d="M85 123C96.0457 123 105 131.954 105 143V185H84V206H63V227H42V248H20C8.95431 248 0 239.046 0 228V123H85Z" fill="#630418"/>
<path d="M84 227H105V248H84V227Z" fill="#630418"/>
<path d="M75 27C86.0457 27 95 35.9543 95 47V91H30C18.9543 91 10 82.0457 10 71V27H75Z" stroke="#630418" stroke-width="20"/>
<path d="M41 53C41 50.2386 43.2386 48 46 48H59C61.7614 48 64 50.2386 64 53V65C64 67.7614 61.7614 70 59 70H46C43.2386 70 41 67.7614 41 65V53Z" fill="#630418"/>
<path d="M169.5 193.66V134.26H297.54V193.66H169.5Z" fill="#630418"/>
<path d="M378.18 259V88.72H306.9V28H522.72V88.72H449.46V259H378.18Z" fill="#630418"/>
<path d="M562.4 259V28H670.64C686.7 28 701 31.19 713.54 37.57C726.08 43.95 735.87 52.64 742.91 63.64C749.95 74.64 753.47 87.29 753.47 101.59C753.47 117.65 749.95 131.73 742.91 143.83C735.87 155.93 726.08 165.39 713.54 172.21C701 178.81 686.7 182.11 670.64 182.11H629.06V259H562.4ZM683.51 259L624.77 154.72L697.7 146.47L763.04 259H683.51ZM629.06 132.61H659.42C664.92 132.61 669.43 131.62 672.95 129.64C676.69 127.44 679.44 124.47 681.2 120.73C683.18 116.99 684.17 112.48 684.17 107.2C684.17 102.36 683.18 98.29 681.2 94.99C679.44 91.47 676.58 88.83 672.62 87.07C668.88 85.09 664.04 84.1 658.1 84.1H629.06V132.61Z" fill="#630418"/>
<path d="M796.4 259L889.13 28H945.23L1037.3 259H966.68L929.72 158.02C927.3 151.2 925.21 145.37 923.45 140.53C921.69 135.69 920.15 131.18 918.83 127C917.51 122.6 916.19 117.98 914.87 113.14C913.55 108.08 912.23 102.14 910.91 95.32H922.13C920.81 102.14 919.49 108.08 918.17 113.14C916.85 117.98 915.42 122.6 913.88 127C912.56 131.18 910.91 135.69 908.93 140.53C907.17 145.37 905.08 151.2 902.66 158.02L865.7 259H796.4ZM842.6 224.68L863.39 176.17H970.64L989.45 224.68H842.6Z" fill="#630418"/>
<path d="M1179.92 262.3C1161.44 262.3 1144.39 259.33 1128.77 253.39C1113.37 247.45 1099.95 239.2 1088.51 228.64C1077.29 217.86 1068.6 205.1 1062.44 190.36C1056.28 175.62 1053.2 159.45 1053.2 141.85C1053.2 124.25 1056.28 108.08 1062.44 93.34C1068.82 78.6 1077.73 65.95 1089.17 55.39C1100.61 44.61 1114.14 36.25 1129.76 30.31C1145.6 24.37 1162.98 21.4 1181.9 21.4C1192.68 21.4 1203.24 22.72 1213.58 25.36C1224.14 27.78 1234.04 31.63 1243.28 36.91C1252.74 41.97 1261.32 48.46 1269.02 56.38L1226.45 106.21C1223.37 102.47 1219.63 99.06 1215.23 95.98C1211.05 92.9 1206.1 90.48 1200.38 88.72C1194.88 86.74 1188.5 85.75 1181.24 85.75C1173.76 85.75 1166.61 87.07 1159.79 89.71C1153.19 92.13 1147.36 95.76 1142.3 100.6C1137.46 105.44 1133.61 111.38 1130.75 118.42C1127.89 125.46 1126.46 133.6 1126.46 142.84C1126.46 151.2 1127.89 158.79 1130.75 165.61C1133.61 172.43 1137.68 178.26 1142.96 183.1C1148.24 187.94 1154.62 191.68 1162.1 194.32C1169.58 196.96 1177.94 198.28 1187.18 198.28C1193.78 198.28 1200.05 197.29 1205.99 195.31C1211.93 193.33 1217.32 190.8 1222.16 187.72C1227 184.42 1231.18 180.79 1234.7 176.83L1268.69 230.29C1262.97 236.45 1255.38 241.95 1245.92 246.79C1236.46 251.63 1226.01 255.48 1214.57 258.34C1203.13 260.98 1191.58 262.3 1179.92 262.3Z" fill="#630418"/>
</svg>
