<svg width="124" height="100" viewBox="0 0 124 100" fill="none" xmlns="http://www.w3.org/2000/svg">
<g clip-path="url(#clip0_2625_7352)">
<path d="M0 0H124V99.8919H0V0Z" fill="white"/>
<path d="M0 0H124V14.69H0V0Z" fill="#FAFAFB"/>
<path d="M0 14.6895H124V16.1585H0V14.6895Z" fill="#E4E6E8"/>
<path d="M24.8008 16.1582H27.2808V99.8911H24.8008V16.1582Z" fill="#EFF0F1"/>
<path d="M3.7207 22.0354C3.7207 21.154 4.2167 20.5664 4.9607 20.5664H24.8007V32.3184H4.9607C4.63183 32.3184 4.31644 32.1636 4.08389 31.8881C3.85135 31.6126 3.7207 31.239 3.7207 30.8494V22.0354Z" fill="#D6D9DC"/>
<path d="M91.7602 20.5664H33.4802C32.7954 20.5664 32.2402 21.2241 32.2402 22.0354V30.8494C32.2402 31.6607 32.7954 32.3184 33.4802 32.3184H91.7602C92.4451 32.3184 93.0002 31.6607 93.0002 30.8494V22.0354C93.0002 21.2241 92.4451 20.5664 91.7602 20.5664Z" fill="#D6D9DC"/>
<path d="M119.04 5.87695H116.56C115.875 5.87695 115.32 6.53465 115.32 7.34595V10.2839C115.32 11.0953 115.875 11.7529 116.56 11.7529H119.04C119.725 11.7529 120.28 11.0953 120.28 10.2839V7.34595C120.28 6.53465 119.725 5.87695 119.04 5.87695Z" fill="#D6D9DC"/>
<path d="M110.361 5.87695H107.881C107.196 5.87695 106.641 6.53465 106.641 7.34595V10.2839C106.641 11.0953 107.196 11.7529 107.881 11.7529H110.361C111.045 11.7529 111.601 11.0953 111.601 10.2839V7.34595C111.601 6.53465 111.045 5.87695 110.361 5.87695Z" fill="#D6D9DC"/>
<path d="M7.4407 5.87695H4.9607C4.27587 5.87695 3.7207 6.53465 3.7207 7.34595V10.2839C3.7207 11.0953 4.27587 11.7529 4.9607 11.7529H7.4407C8.12554 11.7529 8.6807 11.0953 8.6807 10.2839V7.34595C8.6807 6.53465 8.12554 5.87695 7.4407 5.87695Z" fill="#D6D9DC"/>
<path d="M119.041 39.6621H45.8806C45.1958 39.6621 44.6406 40.3198 44.6406 41.1311V44.0691C44.6406 44.8804 45.1958 45.5381 45.8806 45.5381H119.041C119.725 45.5381 120.281 44.8804 120.281 44.0691V41.1311C120.281 40.3198 119.725 39.6621 119.041 39.6621Z" fill="#D6D9DC"/>
<path d="M115.321 49.9453H45.8806C45.1958 49.9453 44.6406 50.603 44.6406 51.4143V54.3523C44.6406 55.1636 45.1958 55.8213 45.8806 55.8213H115.321C116.005 55.8213 116.561 55.1636 116.561 54.3523V51.4143C116.561 50.603 116.005 49.9453 115.321 49.9453Z" fill="#D6D9DC"/>
<path d="M114.081 60.2285H45.8806C45.1958 60.2285 44.6406 60.8862 44.6406 61.6975V64.6355C44.6406 65.4468 45.1958 66.1045 45.8806 66.1045H114.081C114.765 66.1045 115.321 65.4468 115.321 64.6355V61.6975C115.321 60.8862 114.765 60.2285 114.081 60.2285Z" fill="#D6D9DC"/>
<path d="M116.561 70.5117H45.8806C45.1958 70.5117 44.6406 71.1694 44.6406 71.9807V74.9187C44.6406 75.73 45.1958 76.3877 45.8806 76.3877H116.561C117.245 76.3877 117.801 75.73 117.801 74.9187V71.9807C117.801 71.1694 117.245 70.5117 116.561 70.5117Z" fill="#D6D9DC"/>
<path d="M38.4402 39.6621H33.4802C32.7954 39.6621 32.2402 40.3198 32.2402 41.1311V47.0071C32.2402 47.8184 32.7954 48.4761 33.4802 48.4761H38.4402C39.1251 48.4761 39.6802 47.8184 39.6802 47.0071V41.1311C39.6802 40.3198 39.1251 39.6621 38.4402 39.6621Z" fill="#D6D9DC"/>
<path d="M38.4402 63.166H33.4802C32.7954 63.166 32.2402 63.8237 32.2402 64.635V70.511C32.2402 71.3223 32.7954 71.98 33.4802 71.98H38.4402C39.1251 71.98 39.6802 71.3223 39.6802 70.511V64.635C39.6802 63.8237 39.1251 63.166 38.4402 63.166Z" fill="#D6D9DC"/>
<path d="M119.04 83.7324H104.16C103.475 83.7324 102.92 84.3901 102.92 85.2014V94.0154C102.92 94.8267 103.475 95.4844 104.16 95.4844H119.04C119.725 95.4844 120.28 94.8267 120.28 94.0154V85.2014C120.28 84.3901 119.725 83.7324 119.04 83.7324Z" fill="#D6D9DC"/>
<path d="M37.2005 52.8848H34.7205C34.0356 52.8848 33.4805 53.5425 33.4805 54.3538V57.2918C33.4805 58.1031 34.0356 58.7608 34.7205 58.7608H37.2005C37.8853 58.7608 38.4405 58.1031 38.4405 57.2918V54.3538C38.4405 53.5425 37.8853 52.8848 37.2005 52.8848Z" fill="#D6D9DC"/>
<path d="M24.8008 20.5664H27.2808V32.3184H24.8008V20.5664Z" fill="#C62742"/>
<path d="M119.041 20.5664H97.9607C97.2759 20.5664 96.7207 21.2241 96.7207 22.0354V30.8494C96.7207 31.6607 97.2759 32.3184 97.9607 32.3184H119.041C119.726 32.3184 120.281 31.6607 120.281 30.8494V22.0354C120.281 21.2241 119.726 20.5664 119.041 20.5664Z" fill="#C62742"/>
<path d="M0 0H124V2.938H0V0Z" fill="#C62742"/>
</g>
<rect x="0.5" y="0.5" width="123" height="98.8919" stroke="#E7E7E7"/>
<defs>
<clipPath id="clip0_2625_7352">
<rect width="124" height="99.8919" fill="white"/>
</clipPath>
</defs>
</svg>
