<svg width="22" height="22" viewBox="0 0 22 22" fill="none" xmlns="http://www.w3.org/2000/svg">
<mask id="path-1-inside-1_3266_7969" fill="white">
<path d="M10.9524 22C8.14809 22 5.70334 21.0879 3.6181 19.2638C1.53378 17.4405 0.327747 15.1442 0 12.375H1.39615C1.77177 14.74 2.85397 16.7063 4.64277 18.2738C6.43157 19.8413 8.53476 20.625 10.9524 20.625C13.6452 20.625 15.9293 19.6914 17.8047 17.8241C19.68 15.9569 20.6181 13.6822 20.619 11C20.62 8.31783 19.6818 6.04313 17.8047 4.17588C15.9275 2.30863 13.6434 1.375 10.9524 1.375C9.52261 1.375 8.1794 1.67567 6.92273 2.277C5.66606 2.87742 4.55669 3.70471 3.59463 4.75887H7.02078V6.13388H1.28567V0.424875H2.66662V3.70837C3.73456 2.54146 4.98571 1.63212 6.42006 0.980375C7.85441 0.328625 9.36518 0.00183333 10.9524 0C12.4834 0 13.9186 0.286917 15.2582 0.86075C16.5977 1.43458 17.7678 2.22017 18.7686 3.2175C19.7693 4.21483 20.5583 5.37992 21.1355 6.71275C21.7128 8.04558 22.0009 9.47467 22 11C21.9991 12.5253 21.7109 13.9544 21.1355 15.2872C20.5601 16.6201 19.7711 17.7852 18.7686 18.7825C17.766 19.7798 16.5959 20.5654 15.2582 21.1392C13.9205 21.7131 12.4852 22 10.9524 22ZM15.3769 16.2992L10.3406 11.286V4.125H11.7215V10.714L16.3533 15.3257L15.3769 16.2992Z"/>
</mask>
<path d="M10.9524 22C8.14809 22 5.70334 21.0879 3.6181 19.2638C1.53378 17.4405 0.327747 15.1442 0 12.375H1.39615C1.77177 14.74 2.85397 16.7063 4.64277 18.2738C6.43157 19.8413 8.53476 20.625 10.9524 20.625C13.6452 20.625 15.9293 19.6914 17.8047 17.8241C19.68 15.9569 20.6181 13.6822 20.619 11C20.62 8.31783 19.6818 6.04313 17.8047 4.17588C15.9275 2.30863 13.6434 1.375 10.9524 1.375C9.52261 1.375 8.1794 1.67567 6.92273 2.277C5.66606 2.87742 4.55669 3.70471 3.59463 4.75887H7.02078V6.13388H1.28567V0.424875H2.66662V3.70837C3.73456 2.54146 4.98571 1.63212 6.42006 0.980375C7.85441 0.328625 9.36518 0.00183333 10.9524 0C12.4834 0 13.9186 0.286917 15.2582 0.86075C16.5977 1.43458 17.7678 2.22017 18.7686 3.2175C19.7693 4.21483 20.5583 5.37992 21.1355 6.71275C21.7128 8.04558 22.0009 9.47467 22 11C21.9991 12.5253 21.7109 13.9544 21.1355 15.2872C20.5601 16.6201 19.7711 17.7852 18.7686 18.7825C17.766 19.7798 16.5959 20.5654 15.2582 21.1392C13.9205 21.7131 12.4852 22 10.9524 22ZM15.3769 16.2992L10.3406 11.286V4.125H11.7215V10.714L16.3533 15.3257L15.3769 16.2992Z" fill="black"/>
<path d="M3.6181 19.2638L8.22703 13.9952L8.22687 13.995L3.6181 19.2638ZM0 12.375V5.375H-7.87732L-6.95148 13.1977L0 12.375ZM1.39615 12.375L8.30949 11.277L7.37211 5.375H1.39615V12.375ZM10.9524 20.625V13.625V20.625ZM6.92273 2.277L9.94047 8.59311L9.94421 8.59132L6.92273 2.277ZM3.59463 4.75887L-1.57583 0.0401515L-12.2707 11.7589H3.59463V4.75887ZM7.02078 4.75887H14.0208V-2.24113H7.02078V4.75887ZM7.02078 6.13388V13.1339H14.0208V6.13388H7.02078ZM1.28567 6.13388H-5.71433V13.1339H1.28567V6.13388ZM1.28567 0.424875V-6.57512H-5.71433V0.424875H1.28567ZM2.66662 0.424875H9.66662V-6.57512H2.66662V0.424875ZM2.66662 3.70837H-4.33338V21.7255L7.83053 8.43427L2.66662 3.70837ZM10.9524 0V-7L10.9443 -7L10.9524 0ZM15.3769 16.2992L10.4386 21.2604L15.3811 26.1802L20.3195 21.2562L15.3769 16.2992ZM10.3406 11.286H3.34059V14.1949L5.40223 16.2471L10.3406 11.286ZM10.3406 4.125V-2.875H3.34059V4.125H10.3406ZM11.7215 4.125H18.7215V-2.875H11.7215V4.125ZM11.7215 10.714H4.72155V13.6224L6.78251 15.6744L11.7215 10.714ZM16.3533 15.3257L21.2958 20.2827L26.2707 15.3222L21.2923 10.3653L16.3533 15.3257ZM10.9524 22V15C9.82065 15 9.01931 14.6883 8.22703 13.9952L3.6181 19.2638L-0.990829 24.5323C2.38738 27.4876 6.47554 29 10.9524 29V22ZM3.6181 19.2638L8.22687 13.995C7.45691 13.3215 7.07714 12.614 6.95148 11.5523L0 12.375L-6.95148 13.1977C-6.42164 17.6745 -4.38935 21.5595 -0.990669 24.5325L3.6181 19.2638ZM0 12.375V19.375H1.39615V12.375V5.375H0V12.375ZM1.39615 12.375L-5.5172 13.473C-4.88702 17.4408 -2.99833 20.8853 0.0294025 23.5384L4.64277 18.2738L9.25614 13.0091C8.70628 12.5272 8.43055 12.0392 8.30949 11.277L1.39615 12.375ZM4.64277 18.2738L0.0294025 23.5384C3.1177 26.2447 6.86821 27.625 10.9524 27.625V20.625V13.625C10.2013 13.625 9.74544 13.4378 9.25614 13.0091L4.64277 18.2738ZM10.9524 20.625V27.625C15.4601 27.625 19.5309 25.9835 22.7437 22.7846L17.8047 17.8241L12.8656 12.8637C12.3277 13.3992 11.8304 13.625 10.9524 13.625V20.625ZM17.8047 17.8241L22.7437 22.7846C25.9576 19.5845 27.6175 15.5172 27.619 11.0024L20.619 11L13.619 10.9976C13.6188 11.8471 13.4024 12.3293 12.8656 12.8637L17.8047 17.8241ZM20.619 11L27.619 11.0024C27.6206 6.48372 25.959 2.41377 22.7413 -0.786979L17.8047 4.17588L12.868 9.13873C13.4046 9.67248 13.6193 10.1519 13.619 10.9976L20.619 11ZM17.8047 4.17588L22.7413 -0.786979C19.5285 -3.9827 15.4595 -5.625 10.9524 -5.625V1.375V8.375C11.8272 8.375 12.3264 8.59995 12.868 9.13873L17.8047 4.17588ZM10.9524 1.375V-5.625C8.50522 -5.625 6.12646 -5.10211 3.90124 -4.03732L6.92273 2.277L9.94421 8.59132C10.2323 8.45345 10.54 8.375 10.9524 8.375V1.375ZM6.92273 2.277L3.90499 -4.03911C1.81422 -3.04018 -0.0211657 -1.66335 -1.57583 0.0401515L3.59463 4.75887L8.76509 9.4776C9.13455 9.07277 9.51789 8.79501 9.94047 8.59311L6.92273 2.277ZM3.59463 4.75887V11.7589H7.02078V4.75887V-2.24113H3.59463V4.75887ZM7.02078 4.75887H0.0207758V6.13388H7.02078H14.0208V4.75887H7.02078ZM7.02078 6.13388V-0.866125H1.28567V6.13388V13.1339H7.02078V6.13388ZM1.28567 6.13388H8.28567V0.424875H1.28567H-5.71433V6.13388H1.28567ZM1.28567 0.424875V7.42488H2.66662V0.424875V-6.57512H1.28567V0.424875ZM2.66662 0.424875H-4.33338V3.70837H2.66662H9.66662V0.424875H2.66662ZM2.66662 3.70837L7.83053 8.43427C8.26385 7.96079 8.7444 7.61298 9.31584 7.35332L6.42006 0.980375L3.52428 -5.39257C1.22701 -4.34873 -0.794724 -2.87787 -2.49728 -1.01752L2.66662 3.70837ZM6.42006 0.980375L9.31584 7.35332C9.83628 7.11684 10.3618 7.00069 10.9604 7L10.9524 0L10.9443 -7C8.36851 -6.99702 5.87254 -6.45959 3.52428 -5.39257L6.42006 0.980375ZM10.9524 0V7C11.5846 7 12.0771 7.11328 12.5017 7.2952L15.2582 0.86075L18.0146 -5.5737C15.7602 -6.53944 13.3821 -7 10.9524 -7V0ZM15.2582 0.86075L12.5017 7.2952C13.0522 7.53099 13.4745 7.82415 13.8272 8.17566L18.7686 3.2175L23.7099 -1.74066C22.0611 -3.38382 20.1432 -4.66182 18.0146 -5.5737L15.2582 0.86075ZM18.7686 3.2175L13.8272 8.17566C14.183 8.53023 14.4767 8.95124 14.7121 9.4947L21.1355 6.71275L27.559 3.9308C26.6399 1.80859 25.3556 -0.100567 23.7099 -1.74066L18.7686 3.2175ZM21.1355 6.71275L14.7121 9.4947C14.8894 9.90419 15.0004 10.3798 15 10.9958L22 11L29 11.0042C29.0015 8.5695 28.5361 6.18698 27.559 3.9308L21.1355 6.71275ZM22 11L15 10.9958C14.9996 11.6175 14.8876 12.0988 14.7088 12.5128L21.1355 15.2872L27.5622 18.0617C28.5343 15.81 28.9985 13.4332 29 11.0042L22 11ZM21.1355 15.2872L14.7088 12.5128C14.4768 13.0503 14.1862 13.4673 13.8318 13.8198L18.7686 18.7825L23.7053 23.7452C25.3561 22.103 26.6434 20.1899 27.5622 18.0617L21.1355 15.2872ZM18.7686 18.7825L13.8318 13.8198C13.4741 14.1757 13.0485 14.4703 12.4985 14.7062L15.2582 21.1392L18.0178 27.5723C20.1432 26.6606 22.0579 25.384 23.7053 23.7452L18.7686 18.7825ZM15.2582 21.1392L12.4985 14.7062C12.0787 14.8863 11.5877 15 10.9524 15V22V29C13.3827 29 15.7622 28.5399 18.0178 27.5723L15.2582 21.1392ZM15.3769 16.2992L20.3153 11.3381L15.279 6.32489L10.3406 11.286L5.40223 16.2471L10.4386 21.2604L15.3769 16.2992ZM10.3406 11.286H17.3406V4.125H10.3406H3.34059V11.286H10.3406ZM10.3406 4.125V11.125H11.7215V4.125V-2.875H10.3406V4.125ZM11.7215 4.125H4.72155V10.714H11.7215H18.7215V4.125H11.7215ZM11.7215 10.714L6.78251 15.6744L11.4142 20.2862L16.3533 15.3257L21.2923 10.3653L16.6606 5.75357L11.7215 10.714ZM16.3533 15.3257L11.4107 10.3688L10.4344 11.3423L15.3769 16.2992L20.3195 21.2562L21.2958 20.2827L16.3533 15.3257Z" fill="black" mask="url(#path-1-inside-1_3266_7969)"/>
</svg>
