<svg width="60" height="60" viewBox="0 0 60 60" fill="none" xmlns="http://www.w3.org/2000/svg">
<rect width="60" height="60" rx="30" fill="#8C0404"/>
<g clip-path="url(#clip0_23_2771)">
<path fill-rule="evenodd" clip-rule="evenodd" d="M15 16.875L16.875 15L22.6519 19.125C22.8951 19.2987 23.0934 19.528 23.23 19.7938C23.3667 20.0596 23.4378 20.3542 23.4375 20.6531V20.7844C23.4373 21.0309 23.4857 21.275 23.58 21.5028C23.6743 21.7306 23.8125 21.9376 23.9869 22.1119L34.6875 32.8125L36.4013 32.2406C36.7316 32.1307 37.086 32.115 37.4247 32.1951C37.7635 32.2753 38.0733 32.4481 38.3194 32.6944L44.6119 38.9869C44.9634 39.3385 45.1609 39.8153 45.1609 40.3125C45.1609 40.8097 44.9634 41.2865 44.6119 41.6381L41.6381 44.6119C41.2865 44.9634 40.8097 45.1609 40.3125 45.1609C39.8153 45.1609 39.3385 44.9634 38.9869 44.6119L32.6944 38.3194C32.4481 38.0733 32.2753 37.7635 32.1951 37.4247C32.115 37.086 32.1307 36.7316 32.2406 36.4013L32.8125 34.6875L22.1119 23.9869C21.7603 23.6352 21.2835 23.4376 20.7863 23.4375H20.6531C20.3546 23.4375 20.0603 23.3663 19.7948 23.2296C19.5293 23.093 19.3003 22.8949 19.1269 22.6519L15 16.875ZM36.2888 34.9613C36.1127 34.7852 35.874 34.6863 35.625 34.6863C35.376 34.6863 35.1373 34.7852 34.9613 34.9613C34.7852 35.1373 34.6863 35.376 34.6863 35.625C34.6863 35.874 34.7852 36.1127 34.9613 36.2888L40.5863 41.9138C40.7623 42.0898 41.001 42.1887 41.25 42.1887C41.499 42.1887 41.7377 42.0898 41.9138 41.9138C42.0898 41.7377 42.1887 41.499 42.1887 41.25C42.1887 41.001 42.0898 40.7623 41.9138 40.5863L36.2888 34.9613Z" fill="white"/>
<path fill-rule="evenodd" clip-rule="evenodd" d="M44.807 19.1682C45.0613 20.1227 45.0602 21.1272 44.8035 22.081C44.5469 23.0349 44.0439 23.9044 43.345 24.6024C42.6461 25.3004 41.7759 25.8022 40.8217 26.0575C39.8675 26.3128 38.8629 26.3126 37.9089 26.057L26.0195 37.7814C26.3738 38.9806 26.3184 40.2638 25.862 41.4281C25.4056 42.5923 24.5743 43.5713 23.4994 44.2104C22.4244 44.8494 21.1672 45.112 19.9263 44.9566C18.6855 44.8013 17.5318 44.2369 16.6475 43.3527C15.7633 42.4684 15.1989 41.3147 15.0436 40.0739C14.8882 38.833 15.1508 37.5758 15.7898 36.5009C16.4289 35.4259 17.4079 34.5946 18.5721 34.1382C19.7364 33.6818 21.0196 33.6264 22.2189 33.9807L33.9414 22.0914C33.6825 21.1365 33.68 20.1303 33.9342 19.1742C34.1883 18.2181 34.6902 17.3459 35.3891 16.6457C36.088 15.9455 36.9592 15.442 37.9148 15.186C38.8704 14.93 39.8766 14.9305 40.832 15.1876L36.8157 19.2039L37.4982 22.5001L40.7926 23.1826L44.807 19.1682ZM19.7382 36.0789L20.6251 35.6251L21.5082 36.0789L22.5001 36.1276L23.0382 36.962L23.8726 37.5001L23.9214 38.492L24.3732 39.3751L23.9195 40.2582L23.8707 41.2501L23.0364 41.7882L22.4982 42.6226L21.5064 42.6714L20.6232 43.1251L19.7401 42.6714L18.7482 42.6226L18.2101 41.7882L17.3757 41.2501L17.327 40.2582L16.8732 39.3751L17.327 38.492L17.3757 37.5001L18.2101 36.962L18.7482 36.1276L19.7401 36.0789H19.7382Z" fill="white"/>
</g>
<defs>
<clipPath id="clip0_23_2771">
<rect width="30" height="30" fill="white" transform="translate(15 15)"/>
</clipPath>
</defs>
</svg>
