<svg width="70" height="70" viewBox="0 0 70 70" fill="none" xmlns="http://www.w3.org/2000/svg">
<path d="M0 35C0 15.67 15.67 0 35 0C54.33 0 70 15.67 70 35C70 54.33 54.33 70 35 70C15.67 70 0 54.33 0 35Z" fill="url(#paint0_linear_2461_6397)"/>
<g filter="url(#filter0_d_2461_6397)">
<path d="M47.1875 22C47.6682 22 48.1288 22.1886 48.4688 22.5234C48.8087 22.8583 49 23.3125 49 23.7861V27.3574C48.9999 27.8309 48.8086 28.2853 48.4688 28.6201C47.9103 29.17 47.1875 29.7779 47.1875 30.5617V42.5361C47.1874 43.72 46.71 44.8553 45.8604 45.6924C45.0106 46.5296 43.858 47 42.6562 47H26.3438C25.142 47 23.9894 46.5296 23.1396 45.6924C22.29 44.8553 21.8126 43.72 21.8125 42.5361V30.5617C21.8125 29.7779 21.0897 29.17 20.5312 28.6201C20.1914 28.2853 20.0001 27.8309 20 27.3574V23.7861C20 23.3125 20.1913 22.8583 20.5312 22.5234C20.8712 22.1886 21.3318 22 21.8125 22H47.1875ZM23.625 42.5361C23.6251 43.2463 23.9113 43.9275 24.4209 44.4297C24.9308 44.932 25.6227 45.2139 26.3438 45.2139H42.6562C43.3773 45.2139 44.0692 44.932 44.5791 44.4297C45.0887 43.9275 45.3749 43.2463 45.375 42.5361V40.0176C45.375 34.0115 40.5061 29.1426 34.5 29.1426C28.4939 29.1426 23.625 34.0115 23.625 40.0176V42.5361ZM39.0312 32.7139C39.2715 32.7139 39.5019 32.8083 39.6719 32.9756C39.8418 33.143 39.9375 33.3706 39.9375 33.6074C39.9374 33.8441 39.8418 34.0709 39.6719 34.2383C39.5019 34.4057 39.2716 34.5 39.0312 34.5H29.9688C29.7284 34.5 29.4981 34.4057 29.3281 34.2383C29.1582 34.0709 29.0626 33.8441 29.0625 33.6074C29.0625 33.3706 29.1582 33.143 29.3281 32.9756C29.4981 32.8083 29.7285 32.7139 29.9688 32.7139H39.0312ZM21.8125 25.5718C21.8125 26.558 22.612 27.3574 23.5981 27.3574H45.4019C46.388 27.3574 47.1875 26.558 47.1875 25.5718C47.1875 24.5856 46.388 23.7861 45.4019 23.7861H23.5981C22.612 23.7861 21.8125 24.5856 21.8125 25.5718Z" fill="white"/>
</g>
<defs>
<filter id="filter0_d_2461_6397" x="18" y="20" width="33" height="29" filterUnits="userSpaceOnUse" color-interpolation-filters="sRGB">
<feFlood flood-opacity="0" result="BackgroundImageFix"/>
<feColorMatrix in="SourceAlpha" type="matrix" values="0 0 0 0 0 0 0 0 0 0 0 0 0 0 0 0 0 0 127 0" result="hardAlpha"/>
<feOffset/>
<feGaussianBlur stdDeviation="1"/>
<feComposite in2="hardAlpha" operator="out"/>
<feColorMatrix type="matrix" values="0 0 0 0 0 0 0 0 0 0 0 0 0 0 0 0 0 0 0.15 0"/>
<feBlend mode="normal" in2="BackgroundImageFix" result="effect1_dropShadow_2461_6397"/>
<feBlend mode="normal" in="SourceGraphic" in2="effect1_dropShadow_2461_6397" result="shape"/>
</filter>
<linearGradient id="paint0_linear_2461_6397" x1="35" y1="0" x2="35" y2="70" gradientUnits="userSpaceOnUse">
<stop offset="0.427885" stop-color="#8C0404"/>
<stop offset="1" stop-color="#600000"/>
</linearGradient>
</defs>
</svg>
