<svg width="23" height="22" viewBox="0 0 23 22" fill="none" xmlns="http://www.w3.org/2000/svg">
<g clip-path="url(#clip0_1638_1201)">
<path fill-rule="evenodd" clip-rule="evenodd" d="M0 2.75C0 2.38533 0.15145 2.03559 0.421034 1.77773C0.690618 1.51987 1.05625 1.375 1.4375 1.375H21.5625C21.9437 1.375 22.3094 1.51987 22.579 1.77773C22.8485 2.03559 23 2.38533 23 2.75V5.5C23 5.86467 22.8485 6.21441 22.579 6.47227C22.3094 6.73013 21.9437 6.875 21.5625 6.875V17.1875C21.5625 18.0992 21.1839 18.9735 20.5099 19.6182C19.836 20.2628 18.9219 20.625 17.9688 20.625H5.03125C4.07813 20.625 3.16404 20.2628 2.49009 19.6182C1.81613 18.9735 1.4375 18.0992 1.4375 17.1875V6.875C1.05625 6.875 0.690618 6.73013 0.421034 6.47227C0.15145 6.21441 0 5.86467 0 5.5V2.75ZM2.875 6.875V17.1875C2.875 17.7345 3.10218 18.2591 3.50655 18.6459C3.91093 19.0327 4.45938 19.25 5.03125 19.25H17.9688C18.5406 19.25 19.0891 19.0327 19.4935 18.6459C19.8978 18.2591 20.125 17.7345 20.125 17.1875V6.875H2.875ZM21.5625 2.75H1.4375V5.5H21.5625V2.75ZM7.1875 10.3125C7.1875 10.1302 7.26323 9.9553 7.39802 9.82636C7.53281 9.69743 7.71563 9.625 7.90625 9.625H15.0938C15.2844 9.625 15.4672 9.69743 15.602 9.82636C15.7368 9.9553 15.8125 10.1302 15.8125 10.3125C15.8125 10.4948 15.7368 10.6697 15.602 10.7986C15.4672 10.9276 15.2844 11 15.0938 11H7.90625C7.71563 11 7.53281 10.9276 7.39802 10.7986C7.26323 10.6697 7.1875 10.4948 7.1875 10.3125Z" fill="white"/>
</g>
<defs>
<clipPath id="clip0_1638_1201">
<rect width="23" height="22" fill="white"/>
</clipPath>
</defs>
</svg>
