<svg width="74" height="74" viewBox="0 0 74 74" fill="none" xmlns="http://www.w3.org/2000/svg">
<g filter="url(#filter0_d_2860_8021)">
<rect x="2" y="2" width="70" height="70" rx="35" fill="url(#paint0_linear_2860_8021)"/>
<path fill-rule="evenodd" clip-rule="evenodd" d="M22.5 44.0938C22.5 44.7651 22.7766 45.4089 23.2688 45.8836C23.7611 46.3583 24.4288 46.625 25.125 46.625H47.875C48.5712 46.625 49.2389 46.3583 49.7312 45.8836C50.2234 45.4089 50.5 44.7651 50.5 44.0938V33.9688H48.75V44.0938C48.75 44.3175 48.6578 44.5321 48.4937 44.6904C48.3296 44.8486 48.1071 44.9375 47.875 44.9375H25.125C24.8929 44.9375 24.6704 44.8486 24.5063 44.6904C24.3422 44.5321 24.25 44.3175 24.25 44.0938V33.9688H22.5V44.0938Z" fill="white"/>
<path fill-rule="evenodd" clip-rule="evenodd" d="M22.5 30.5938C22.5 29.9224 22.7766 29.2786 23.2688 28.8039C23.7611 28.3292 24.4288 28.0625 25.125 28.0625H47.875C48.5712 28.0625 49.2389 28.3292 49.7312 28.8039C50.2234 29.2786 50.5 29.9224 50.5 30.5938V34.6168L37.1755 38.0424C36.7329 38.156 36.2671 38.156 35.8245 38.0424L22.5 34.6168V30.5938ZM25.125 29.75C24.8929 29.75 24.6704 29.8389 24.5063 29.9971C24.3422 30.1554 24.25 30.37 24.25 30.5938V33.3208L36.2743 36.4123C36.4222 36.4503 36.5778 36.4503 36.7257 36.4123L48.75 33.3208V30.5938C48.75 30.37 48.6578 30.1554 48.4937 29.9971C48.3296 29.8389 48.1071 29.75 47.875 29.75H25.125ZM31.25 27.2188C31.25 26.5474 31.5266 25.9036 32.0188 25.4289C32.5111 24.9542 33.1788 24.6875 33.875 24.6875H39.125C39.8212 24.6875 40.4889 24.9542 40.9812 25.4289C41.4734 25.9036 41.75 26.5474 41.75 27.2188V28.0625H40V27.2188C40 26.995 39.9078 26.7804 39.7437 26.6221C39.5796 26.4639 39.3571 26.375 39.125 26.375H33.875C33.6429 26.375 33.4204 26.4639 33.2563 26.6221C33.0922 26.7804 33 26.995 33 27.2188V28.0625H31.25V27.2188Z" fill="white"/>
</g>
<defs>
<filter id="filter0_d_2860_8021" x="0" y="0" width="74" height="74" filterUnits="userSpaceOnUse" color-interpolation-filters="sRGB">
<feFlood flood-opacity="0" result="BackgroundImageFix"/>
<feColorMatrix in="SourceAlpha" type="matrix" values="0 0 0 0 0 0 0 0 0 0 0 0 0 0 0 0 0 0 127 0" result="hardAlpha"/>
<feOffset/>
<feGaussianBlur stdDeviation="1"/>
<feComposite in2="hardAlpha" operator="out"/>
<feColorMatrix type="matrix" values="0 0 0 0 0 0 0 0 0 0 0 0 0 0 0 0 0 0 0.15 0"/>
<feBlend mode="normal" in2="BackgroundImageFix" result="effect1_dropShadow_2860_8021"/>
<feBlend mode="normal" in="SourceGraphic" in2="effect1_dropShadow_2860_8021" result="shape"/>
</filter>
<linearGradient id="paint0_linear_2860_8021" x1="37" y1="2" x2="37" y2="72" gradientUnits="userSpaceOnUse">
<stop offset="0.427885" stop-color="#8C0404"/>
<stop offset="1" stop-color="#600000"/>
</linearGradient>
</defs>
</svg>
