<svg width="20" height="21" viewBox="0 0 20 21" fill="none" xmlns="http://www.w3.org/2000/svg">
<path d="M6.875 7.21875C7.04076 7.21875 7.19973 7.28789 7.31694 7.41096C7.43415 7.53403 7.5 7.70095 7.5 7.875V15.75C7.5 15.924 7.43415 16.091 7.31694 16.214C7.19973 16.3371 7.04076 16.4062 6.875 16.4062C6.70924 16.4062 6.55027 16.3371 6.43306 16.214C6.31585 16.091 6.25 15.924 6.25 15.75V7.875C6.25 7.70095 6.31585 7.53403 6.43306 7.41096C6.55027 7.28789 6.70924 7.21875 6.875 7.21875ZM10 7.21875C10.1658 7.21875 10.3247 7.28789 10.4419 7.41096C10.5592 7.53403 10.625 7.70095 10.625 7.875V15.75C10.625 15.924 10.5592 16.091 10.4419 16.214C10.3247 16.3371 10.1658 16.4062 10 16.4062C9.83424 16.4062 9.67527 16.3371 9.55806 16.214C9.44085 16.091 9.375 15.924 9.375 15.75V7.875C9.375 7.70095 9.44085 7.53403 9.55806 7.41096C9.67527 7.28789 9.83424 7.21875 10 7.21875ZM13.75 7.875C13.75 7.70095 13.6842 7.53403 13.5669 7.41096C13.4497 7.28789 13.2908 7.21875 13.125 7.21875C12.9592 7.21875 12.8003 7.28789 12.6831 7.41096C12.5658 7.53403 12.5 7.70095 12.5 7.875V15.75C12.5 15.924 12.5658 16.091 12.6831 16.214C12.8003 16.3371 12.9592 16.4062 13.125 16.4062C13.2908 16.4062 13.4497 16.3371 13.5669 16.214C13.6842 16.091 13.75 15.924 13.75 15.75V7.875Z" fill="#8C0404"/>
<path fill-rule="evenodd" clip-rule="evenodd" d="M18.125 3.9375C18.125 4.2856 17.9933 4.61944 17.7589 4.86558C17.5245 5.11172 17.2065 5.25 16.875 5.25H16.25V17.0625C16.25 17.7587 15.9866 18.4264 15.5178 18.9187C15.0489 19.4109 14.413 19.6875 13.75 19.6875H6.25C5.58696 19.6875 4.95107 19.4109 4.48223 18.9187C4.01339 18.4264 3.75 17.7587 3.75 17.0625V5.25H3.125C2.79348 5.25 2.47554 5.11172 2.24112 4.86558C2.0067 4.61944 1.875 4.2856 1.875 3.9375V2.625C1.875 2.2769 2.0067 1.94306 2.24112 1.69692C2.47554 1.45078 2.79348 1.3125 3.125 1.3125H7.5C7.5 0.964403 7.6317 0.630564 7.86612 0.384422C8.10054 0.138281 8.41848 0 8.75 0L11.25 0C11.5815 0 11.8995 0.138281 12.1339 0.384422C12.3683 0.630564 12.5 0.964403 12.5 1.3125H16.875C17.2065 1.3125 17.5245 1.45078 17.7589 1.69692C17.9933 1.94306 18.125 2.2769 18.125 2.625V3.9375ZM5.1475 5.25L5 5.32744V17.0625C5 17.4106 5.1317 17.7444 5.36612 17.9906C5.60054 18.2367 5.91848 18.375 6.25 18.375H13.75C14.0815 18.375 14.3995 18.2367 14.6339 17.9906C14.8683 17.7444 15 17.4106 15 17.0625V5.32744L14.8525 5.25H5.1475ZM3.125 3.9375V2.625H16.875V3.9375H3.125Z" fill="#8C0404"/>
</svg>
