<svg width="60" height="60" viewBox="0 0 60 60" fill="none" xmlns="http://www.w3.org/2000/svg">
<rect width="60" height="60" rx="30" fill="#8C0404"/>
<path d="M42 17.2222H39V16.6667C39 16.2246 38.8104 15.8007 38.4728 15.4882C38.1352 15.1756 37.6774 15 37.2 15C36.7226 15 36.2648 15.1756 35.9272 15.4882C35.5896 15.8007 35.4 16.2246 35.4 16.6667V17.2222H24.6V16.6667C24.6 16.2246 24.4104 15.8007 24.0728 15.4882C23.7352 15.1756 23.2774 15 22.8 15C22.3226 15 21.8648 15.1756 21.5272 15.4882C21.1896 15.8007 21 16.2246 21 16.6667V17.2222H18C17.2044 17.2222 16.4413 17.5149 15.8787 18.0358C15.3161 18.5567 15 19.2633 15 20V42.2222C15 42.9589 15.3161 43.6655 15.8787 44.1864C16.4413 44.7073 17.2044 45 18 45H42C42.7957 45 43.5587 44.7073 44.1213 44.1864C44.6839 43.6655 45 42.9589 45 42.2222V20C45 19.2633 44.6839 18.5567 44.1213 18.0358C43.5587 17.5149 42.7957 17.2222 42 17.2222ZM21 20.5556C21 20.9976 21.1896 21.4215 21.5272 21.7341C21.8648 22.0466 22.3226 22.2222 22.8 22.2222C23.2774 22.2222 23.7352 22.0466 24.0728 21.7341C24.4104 21.4215 24.6 20.9976 24.6 20.5556H35.4C35.4 20.9976 35.5896 21.4215 35.9272 21.7341C36.2648 22.0466 36.7226 22.2222 37.2 22.2222C37.6774 22.2222 38.1352 22.0466 38.4728 21.7341C38.8104 21.4215 39 20.9976 39 20.5556H41.4V23.8889H18.6V20.5556H21ZM18.6 41.6667V27.2222H41.4V41.6667H18.6ZM32.4 31.1111C32.4 31.5506 32.2592 31.9803 31.9955 32.3457C31.7318 32.7112 31.357 32.996 30.9184 33.1642C30.4799 33.3324 29.9973 33.3764 29.5318 33.2906C29.0662 33.2049 28.6386 32.9932 28.3029 32.6825C27.9673 32.3717 27.7387 31.9757 27.6461 31.5446C27.5535 31.1136 27.601 30.6668 27.7827 30.2607C27.9643 29.8546 28.272 29.5076 28.6666 29.2634C29.0613 29.0192 29.5253 28.8889 30 28.8889C30.6365 28.8889 31.247 29.123 31.6971 29.5398C32.1471 29.9565 32.4 30.5217 32.4 31.1111ZM39.6 31.1111C39.6 31.5506 39.4592 31.9803 39.1955 32.3457C38.9318 32.7112 38.557 32.996 38.1184 33.1642C37.6799 33.3324 37.1973 33.3764 36.7318 33.2906C36.2662 33.2049 35.8386 32.9932 35.5029 32.6825C35.1673 32.3717 34.9387 31.9757 34.8461 31.5446C34.7535 31.1136 34.801 30.6668 34.9827 30.2607C35.1643 29.8546 35.472 29.5076 35.8666 29.2634C36.2613 29.0192 36.7253 28.8889 37.2 28.8889C37.8365 28.8889 38.447 29.123 38.8971 29.5398C39.3471 29.9565 39.6 30.5217 39.6 31.1111ZM25.2 37.7778C25.2 38.2173 25.0592 38.6469 24.7955 39.0124C24.5318 39.3778 24.157 39.6626 23.7184 39.8308C23.2799 39.999 22.7973 40.043 22.3318 39.9573C21.8662 39.8716 21.4386 39.6599 21.1029 39.3491C20.7673 39.0383 20.5387 38.6424 20.4461 38.2113C20.3535 37.7802 20.401 37.3334 20.5827 36.9274C20.7643 36.5213 21.072 36.1742 21.4666 35.9301C21.8613 35.6859 22.3253 35.5556 22.8 35.5556C23.4365 35.5556 24.047 35.7897 24.4971 36.2064C24.9471 36.6232 25.2 37.1884 25.2 37.7778ZM32.4 37.7778C32.4 38.2173 32.2592 38.6469 31.9955 39.0124C31.7318 39.3778 31.357 39.6626 30.9184 39.8308C30.4799 39.999 29.9973 40.043 29.5318 39.9573C29.0662 39.8716 28.6386 39.6599 28.3029 39.3491C27.9673 39.0383 27.7387 38.6424 27.6461 38.2113C27.5535 37.7802 27.601 37.3334 27.7827 36.9274C27.9643 36.5213 28.272 36.1742 28.6666 35.9301C29.0613 35.6859 29.5253 35.5556 30 35.5556C30.6365 35.5556 31.247 35.7897 31.6971 36.2064C32.1471 36.6232 32.4 37.1884 32.4 37.7778ZM39.6 37.7778C39.6 38.2173 39.4592 38.6469 39.1955 39.0124C38.9318 39.3778 38.557 39.6626 38.1184 39.8308C37.6799 39.999 37.1973 40.043 36.7318 39.9573C36.2662 39.8716 35.8386 39.6599 35.5029 39.3491C35.1673 39.0383 34.9387 38.6424 34.8461 38.2113C34.7535 37.7802 34.801 37.3334 34.9827 36.9274C35.1643 36.5213 35.472 36.1742 35.8666 35.9301C36.2613 35.6859 36.7253 35.5556 37.2 35.5556C37.8365 35.5556 38.447 35.7897 38.8971 36.2064C39.3471 36.6232 39.6 37.1884 39.6 37.7778Z" fill="white"/>
</svg>
