<svg width="22" height="23" viewBox="0 0 22 23" fill="none" xmlns="http://www.w3.org/2000/svg">
<path d="M10.8333 14.1667C12.3521 14.1667 13.5833 12.8795 13.5833 11.2917C13.5833 9.70385 12.3521 8.41667 10.8333 8.41667C9.31455 8.41667 8.08333 9.70385 8.08333 11.2917C8.08333 12.8795 9.31455 14.1667 10.8333 14.1667Z" stroke="#8C0404" stroke-width="1.5" stroke-linecap="round" stroke-linejoin="round"/>
<path d="M17.6167 14.1667C17.4946 14.4557 17.4582 14.7764 17.5122 15.0872C17.5661 15.3981 17.7078 15.685 17.9192 15.9108L17.9742 15.9683C18.1446 16.1463 18.2798 16.3577 18.3721 16.5904C18.4644 16.8231 18.5119 17.0725 18.5119 17.3244C18.5119 17.5763 18.4644 17.8257 18.3721 18.0583C18.2798 18.291 18.1446 18.5024 17.9742 18.6804C17.8039 18.8586 17.6017 19 17.3791 19.0964C17.1566 19.1929 16.918 19.2426 16.6771 19.2426C16.4362 19.2426 16.1976 19.1929 15.975 19.0964C15.7525 19 15.5503 18.8586 15.38 18.6804L15.325 18.6229C15.109 18.402 14.8346 18.2538 14.5372 18.1974C14.2398 18.141 13.9331 18.1791 13.6567 18.3067C13.3855 18.4281 13.1543 18.6299 12.9914 18.887C12.8286 19.1441 12.7412 19.4454 12.74 19.7538V19.9167C12.74 20.425 12.5468 20.9125 12.203 21.272C11.8592 21.6314 11.3929 21.8333 10.9067 21.8333C10.4204 21.8333 9.95412 21.6314 9.6103 21.272C9.26649 20.9125 9.07333 20.425 9.07333 19.9167V19.8304C9.06624 19.5132 8.96802 19.2056 8.79147 18.9475C8.61491 18.6894 8.36817 18.4929 8.08333 18.3833C7.80685 18.2558 7.50016 18.2177 7.20279 18.2741C6.90543 18.3304 6.63104 18.4787 6.415 18.6996L6.36 18.7571C6.18973 18.9353 5.98754 19.0767 5.76497 19.1731C5.54241 19.2696 5.30384 19.3192 5.06292 19.3192C4.82199 19.3192 4.58342 19.2696 4.36086 19.1731C4.1383 19.0767 3.9361 18.9353 3.76583 18.7571C3.59538 18.5791 3.46015 18.3677 3.36789 18.135C3.27563 17.9023 3.22814 17.6529 3.22814 17.401C3.22814 17.1492 3.27563 16.8998 3.36789 16.6671C3.46015 16.4344 3.59538 16.223 3.76583 16.045L3.82083 15.9875C4.03216 15.7616 4.17392 15.4748 4.22784 15.1639C4.28175 14.853 4.24536 14.5324 4.12333 14.2433C4.00713 13.9599 3.81419 13.7182 3.56826 13.5479C3.32233 13.3776 3.03414 13.2862 2.73917 13.285H2.58333C2.0971 13.285 1.63079 13.0831 1.28697 12.7236C0.943154 12.3642 0.75 11.8767 0.75 11.3683C0.75 10.86 0.943154 10.3725 1.28697 10.013C1.63079 9.6536 2.0971 9.45167 2.58333 9.45167H2.66583C2.96924 9.44425 3.2635 9.34157 3.51036 9.15699C3.75721 8.97241 3.94524 8.71445 4.05 8.41667C4.17202 8.12762 4.20842 7.80698 4.1545 7.4961C4.10059 7.18522 3.95883 6.89836 3.7475 6.6725L3.6925 6.615C3.52204 6.43699 3.38682 6.22561 3.29456 5.99293C3.2023 5.76025 3.15481 5.51084 3.15481 5.25896C3.15481 5.00708 3.2023 4.75767 3.29456 4.52499C3.38682 4.29231 3.52204 4.08092 3.6925 3.90292C3.86277 3.72471 4.06496 3.58334 4.28753 3.48689C4.51009 3.39043 4.74865 3.34078 4.98958 3.34078C5.23051 3.34078 5.46908 3.39043 5.69164 3.48689C5.9142 3.58334 6.1164 3.72471 6.28667 3.90292L6.34167 3.96042C6.55771 4.18135 6.8321 4.32955 7.12946 4.38592C7.42682 4.44229 7.73352 4.40424 8.01 4.27667H8.08333C8.35445 4.15519 8.58568 3.95347 8.74855 3.69636C8.91142 3.43925 8.99882 3.13796 9 2.82958V2.66667C9 2.15834 9.19315 1.67082 9.53697 1.31138C9.88079 0.951934 10.3471 0.75 10.8333 0.75C11.3196 0.75 11.7859 0.951934 12.1297 1.31138C12.4735 1.67082 12.6667 2.15834 12.6667 2.66667V2.75292C12.6678 3.0613 12.7552 3.36258 12.9181 3.6197C13.081 3.87681 13.3122 4.07852 13.5833 4.2C13.8598 4.32757 14.1665 4.36562 14.4639 4.30925C14.7612 4.25289 15.0356 4.10468 15.2517 3.88375L15.3067 3.82625C15.4769 3.64805 15.6791 3.50667 15.9017 3.41022C16.1243 3.31376 16.3628 3.26412 16.6037 3.26412C16.8447 3.26412 17.0832 3.31376 17.3058 3.41022C17.5284 3.50667 17.7306 3.64805 17.9008 3.82625C18.0713 4.00426 18.2065 4.21564 18.2988 4.44832C18.391 4.681 18.4385 4.93041 18.4385 5.18229C18.4385 5.43417 18.391 5.68358 18.2988 5.91626C18.2065 6.14894 18.0713 6.36033 17.9008 6.53833L17.8458 6.59583C17.6345 6.82169 17.4927 7.10856 17.4388 7.41944C17.3849 7.73031 17.4213 8.05095 17.5433 8.34V8.41667C17.6595 8.70011 17.8525 8.94185 18.0984 9.11212C18.3443 9.2824 18.6325 9.37377 18.9275 9.375H19.0833C19.5696 9.375 20.0359 9.57693 20.3797 9.93638C20.7235 10.2958 20.9167 10.7833 20.9167 11.2917C20.9167 11.8 20.7235 12.2875 20.3797 12.647C20.0359 13.0064 19.5696 13.2083 19.0833 13.2083H19.0008C18.7059 13.2096 18.4177 13.3009 18.1717 13.4712C17.9258 13.6415 17.7329 13.8832 17.6167 14.1667Z" stroke="#8C0404" stroke-width="1.5" stroke-linecap="round" stroke-linejoin="round"/>
</svg>
