<svg width="70" height="70" viewBox="0 0 70 70" fill="none" xmlns="http://www.w3.org/2000/svg">
<path d="M0 35C0 15.67 15.67 0 35 0C54.33 0 70 15.67 70 35C70 54.33 54.33 70 35 70C15.67 70 0 54.33 0 35Z" fill="url(#paint0_linear_3266_8008)"/>
<path fill-rule="evenodd" clip-rule="evenodd" d="M22.5 24C22.5 22.6739 23.0268 21.4021 23.9645 20.4645C24.9021 19.5268 26.1739 19 27.5 19H41.5C42.8261 19 44.0979 19.5268 45.0355 20.4645C45.9732 21.4021 46.5 22.6739 46.5 24V47C46.5 48.0609 46.0786 49.0783 45.3284 49.8284C44.5783 50.5786 43.5609 51 42.5 51H26.5C25.4391 51 24.4217 50.5786 23.6716 49.8284C22.9214 49.0783 22.5 48.0609 22.5 47V24ZM27.5 21C26.7044 21 25.9413 21.3161 25.3787 21.8787C24.8161 22.4413 24.5 23.2044 24.5 24V45.59C24.9798 45.2062 25.5002 44.8763 26.052 44.606C27.716 43.774 30.374 43 34.5 43C38.626 43 41.284 43.774 42.948 44.606C43.4998 44.8763 44.0202 45.2062 44.5 45.59V24C44.5 23.2044 44.1839 22.4413 43.6213 21.8787C43.0587 21.3161 42.2956 21 41.5 21H27.5Z" fill="white"/>
<path fill-rule="evenodd" clip-rule="evenodd" d="M34.5 41C36.0913 41 37.6174 40.3679 38.7426 39.2426C39.8679 38.1174 40.5 36.5913 40.5 35C40.5 33.4087 39.8679 31.8826 38.7426 30.7574C37.6174 29.6321 36.0913 29 34.5 29C32.9087 29 31.3826 29.6321 30.2574 30.7574C29.1321 31.8826 28.5 33.4087 28.5 35C28.5 36.5913 29.1321 38.1174 30.2574 39.2426C31.3826 40.3679 32.9087 41 34.5 41ZM30.5 24C30.5 23.7348 30.6054 23.4804 30.7929 23.2929C30.9804 23.1054 31.2348 23 31.5 23H37.5C37.7652 23 38.0196 23.1054 38.2071 23.2929C38.3946 23.4804 38.5 23.7348 38.5 24C38.5 24.2652 38.3946 24.5196 38.2071 24.7071C38.0196 24.8946 37.7652 25 37.5 25H31.5C31.2348 25 30.9804 24.8946 30.7929 24.7071C30.6054 24.5196 30.5 24.2652 30.5 24Z" fill="white"/>
<defs>
<linearGradient id="paint0_linear_3266_8008" x1="35" y1="0" x2="35" y2="70" gradientUnits="userSpaceOnUse">
<stop offset="0.427885" stop-color="#8C0404"/>
<stop offset="1" stop-color="#600000"/>
</linearGradient>
</defs>
</svg>
