<svg width="60" height="60" viewBox="0 0 60 60" fill="none" xmlns="http://www.w3.org/2000/svg">
<rect width="60" height="60" rx="30" fill="#8C0404"/>
<path d="M45.8853 32.4138C45.3895 32.0564 44.8131 31.8111 44.2005 31.6968C43.5879 31.5826 42.9556 31.6025 42.3525 31.755L37.1703 32.8701C37.1703 32.8134 37.1703 32.7567 37.1703 32.7C37.1703 31.5543 36.6868 30.4555 35.826 29.6453C34.9652 28.8351 33.7978 28.38 32.5805 28.38H25.4003C24.7221 28.3783 24.0503 28.5031 23.4237 28.7474C22.7971 28.9916 22.2282 29.3504 21.7499 29.8029L18.6676 32.7H15.3686C14.6078 32.7 13.8782 32.9845 13.3402 33.4908C12.8022 33.9972 12.5 34.6839 12.5 35.4V40.8C12.5 41.5161 12.8022 42.2028 13.3402 42.7092C13.8782 43.2155 14.6078 43.5 15.3686 43.5H29.7119C29.8526 43.5001 29.9928 43.4837 30.1292 43.4514L39.3089 41.2914C39.3967 41.2711 39.4826 41.244 39.5656 41.2104L45.1337 38.9775C45.1667 38.9654 45.1982 38.9519 45.2298 38.937C45.8525 38.6438 46.3857 38.2063 46.7792 37.6656C47.1727 37.1249 47.4136 36.4989 47.4792 35.8465C47.5447 35.194 47.4328 34.5366 47.154 33.9361C46.8751 33.3356 46.4385 32.8117 45.8853 32.4138ZM17.6636 40.26H15.9424V35.94H17.6636V40.26ZM43.7223 36.0224L38.3422 38.1824L29.4996 40.26H21.1059V34.995L24.184 32.0979C24.3431 31.9465 24.5325 31.8263 24.7413 31.7443C24.9501 31.6623 25.1741 31.62 25.4003 31.62H32.5805C32.8848 31.62 33.1767 31.7338 33.3919 31.9363C33.6071 32.1389 33.728 32.4136 33.728 32.7C33.728 32.9864 33.6071 33.2611 33.3919 33.4637C33.1767 33.6662 32.8848 33.78 32.5805 33.78H28.5644C28.1079 33.78 27.6701 33.9507 27.3473 34.2545C27.0246 34.5583 26.8432 34.9704 26.8432 35.4C26.8432 35.8297 27.0246 36.2417 27.3473 36.5455C27.6701 36.8493 28.1079 37.02 28.5644 37.02H33.1542C33.284 37.02 33.4134 37.0064 33.5401 36.9795L43.15 34.8991L43.2174 34.8829C43.3154 34.8579 43.4182 34.8544 43.5178 34.8727C43.6175 34.891 43.7113 34.9307 43.792 34.9887C43.8728 35.0466 43.9382 35.1213 43.9833 35.2069C44.0285 35.2925 44.052 35.3868 44.0522 35.4824C44.0529 35.5918 44.0227 35.6994 43.9648 35.7943C43.9068 35.8892 43.8232 35.9679 43.7223 36.0224ZM36.0229 27.3C36.2713 27.2997 36.5195 27.2844 36.7659 27.2541C37.2774 28.1075 38.026 28.8138 38.9315 29.2973C39.8369 29.7809 40.8651 30.0234 41.9058 29.999C42.9465 29.9745 43.9606 29.684 44.8393 29.1586C45.718 28.6332 46.4283 27.8926 46.894 27.0162C47.3596 26.1399 47.5632 25.1608 47.4829 24.1839C47.4025 23.207 47.0413 22.269 46.4379 21.4706C45.8344 20.6721 45.0116 20.0433 44.0574 19.6514C43.1033 19.2595 42.0538 19.1193 41.0215 19.2459C40.5254 18.4185 39.8061 17.729 38.9363 17.2469C38.0665 16.7648 37.077 16.5072 36.0677 16.5001C35.0583 16.4931 34.0648 16.7368 33.1875 17.2067C32.3102 17.6765 31.5801 18.3559 31.071 19.1763C30.5619 19.9966 30.2917 20.9289 30.2878 21.8789C30.2838 22.829 30.5463 23.7632 31.0486 24.5872C31.5509 25.4113 32.2753 26.096 33.1487 26.5723C34.0221 27.0486 35.0135 27.2996 36.0229 27.3ZM41.7602 22.44C42.2141 22.44 42.6577 22.5667 43.0351 22.804C43.4125 23.0414 43.7067 23.3787 43.8804 23.7734C44.0541 24.1681 44.0995 24.6024 44.011 25.0214C43.9224 25.4404 43.7039 25.8253 43.3829 26.1274C43.062 26.4294 42.653 26.6352 42.2079 26.7185C41.7627 26.8018 41.3013 26.7591 40.8819 26.5956C40.4626 26.4321 40.1042 26.1552 39.852 25.8C39.5998 25.4448 39.4652 25.0272 39.4652 24.6C39.4652 24.0271 39.707 23.4777 40.1374 23.0726C40.5678 22.6676 41.1515 22.44 41.7602 22.44ZM36.0229 19.74C36.3847 19.7399 36.7415 19.8202 37.0641 19.9746C37.3866 20.129 37.6658 20.353 37.8789 20.6283C36.8427 21.5222 36.1923 22.7437 36.0516 24.06H36.0229C35.4142 24.06 34.8305 23.8324 34.4001 23.4274C33.9697 23.0223 33.728 22.4729 33.728 21.9C33.728 21.3271 33.9697 20.7777 34.4001 20.3726C34.8305 19.9676 35.4142 19.74 36.0229 19.74Z" fill="white"/>
</svg>
