<svg width="60" height="60" viewBox="0 0 60 60" fill="none" xmlns="http://www.w3.org/2000/svg">
<path d="M0 30C0 13.4315 13.4315 0 30 0C46.5685 0 60 13.4315 60 30C60 46.5685 46.5685 60 30 60C13.4315 60 0 46.5685 0 30Z" fill="url(#paint0_linear_3592_8369)"/>
<path d="M45.8853 32.3244C45.3895 31.9802 44.8131 31.744 44.2005 31.634C43.5879 31.524 42.9556 31.5431 42.3525 31.69L37.1703 32.7638C37.1703 32.7092 37.1703 32.6546 37.1703 32.6C37.1703 31.4967 36.6868 30.4386 35.826 29.6584C34.9652 28.8783 33.7978 28.44 32.5805 28.44H25.4003C24.7221 28.4383 24.0503 28.5586 23.4237 28.7937C22.7971 29.0289 22.2282 29.3744 21.7499 29.8102L18.6676 32.6H15.3686C14.6078 32.6 13.8782 32.8739 13.3402 33.3615C12.8022 33.8491 12.5 34.5104 12.5 35.2V40.4C12.5 41.0896 12.8022 41.7509 13.3402 42.2385C13.8782 42.7261 14.6078 43 15.3686 43H29.7119C29.8526 43.0001 29.9928 42.9843 30.1292 42.9532L39.3089 40.8732C39.3967 40.8537 39.4826 40.8276 39.5656 40.7952L45.1337 38.645C45.1667 38.6333 45.1982 38.6203 45.2298 38.606C45.8525 38.3236 46.3857 37.9023 46.7792 37.3817C47.1727 36.861 47.4136 36.2582 47.4792 35.6299C47.5447 35.0016 47.4328 34.3686 47.154 33.7903C46.8751 33.212 46.4385 32.7076 45.8853 32.3244ZM17.6636 39.88H15.9424V35.72H17.6636V39.88ZM43.7223 35.7993L38.3422 37.8793L29.4996 39.88H21.1059V34.81L24.184 32.0202C24.3431 31.8744 24.5325 31.7587 24.7413 31.6797C24.9501 31.6007 25.1741 31.56 25.4003 31.56H32.5805C32.8848 31.56 33.1767 31.6696 33.3919 31.8646C33.6071 32.0596 33.728 32.3242 33.728 32.6C33.728 32.8758 33.6071 33.1404 33.3919 33.3354C33.1767 33.5304 32.8848 33.64 32.5805 33.64H28.5644C28.1079 33.64 27.6701 33.8044 27.3473 34.0969C27.0246 34.3895 26.8432 34.7863 26.8432 35.2C26.8432 35.6137 27.0246 36.0105 27.3473 36.3031C27.6701 36.5956 28.1079 36.76 28.5644 36.76H33.1542C33.284 36.76 33.4134 36.7469 33.5401 36.721L43.15 34.7177L43.2174 34.7021C43.3154 34.6779 43.4182 34.6746 43.5178 34.6922C43.6175 34.7099 43.7113 34.7481 43.792 34.8039C43.8728 34.8597 43.9382 34.9316 43.9833 35.0141C44.0285 35.0965 44.052 35.1873 44.0522 35.2793C44.0529 35.3847 44.0227 35.4883 43.9648 35.5797C43.9068 35.6711 43.8232 35.7468 43.7223 35.7993ZM36.0229 27.4C36.2713 27.3997 36.5195 27.385 36.7659 27.3558C37.2774 28.1776 38.026 28.8577 38.9315 29.3234C39.8369 29.789 40.8651 30.0225 41.9058 29.999C42.9465 29.9755 43.9606 29.6957 44.8393 29.1897C45.718 28.6838 46.4283 27.9706 46.894 27.1268C47.3596 26.2829 47.5632 25.3401 47.4829 24.3993C47.4025 23.4586 47.0413 22.5554 46.4379 21.7865C45.8344 21.0176 45.0116 20.412 44.0574 20.0347C43.1033 19.6573 42.0538 19.5223 41.0215 19.6442C40.5254 18.8475 39.8061 18.1835 38.9363 17.7192C38.0665 17.255 37.077 17.0069 36.0677 17.0001C35.0583 16.9933 34.0648 17.228 33.1875 17.6805C32.3102 18.133 31.5801 18.7872 31.071 19.5772C30.5619 20.3671 30.2917 21.2648 30.2878 22.1797C30.2838 23.0946 30.5463 23.9942 31.0486 24.7877C31.5509 25.5813 32.2753 26.2406 33.1487 26.6993C34.0221 27.158 35.0135 27.3997 36.0229 27.4ZM41.7602 22.72C42.2141 22.72 42.6577 22.842 43.0351 23.0705C43.4125 23.2991 43.7067 23.6239 43.8804 24.004C44.0541 24.3841 44.0995 24.8023 44.011 25.2058C43.9224 25.6093 43.7039 25.9799 43.3829 26.2708C43.062 26.5617 42.653 26.7598 42.2079 26.84C41.7627 26.9203 41.3013 26.8791 40.8819 26.7217C40.4626 26.5642 40.1042 26.2976 39.852 25.9556C39.5998 25.6135 39.4652 25.2114 39.4652 24.8C39.4652 24.2483 39.707 23.7193 40.1374 23.3292C40.5678 22.9391 41.1515 22.72 41.7602 22.72ZM36.0229 20.12C36.3847 20.1199 36.7415 20.1973 37.0641 20.3459C37.3866 20.4946 37.6658 20.7103 37.8789 20.9754C36.8427 21.8362 36.1923 23.0125 36.0516 24.28H36.0229C35.4142 24.28 34.8305 24.0609 34.4001 23.6708C33.9697 23.2807 33.728 22.7516 33.728 22.2C33.728 21.6483 33.9697 21.1193 34.4001 20.7292C34.8305 20.3391 35.4142 20.12 36.0229 20.12Z" fill="white"/>
<defs>
<linearGradient id="paint0_linear_3592_8369" x1="30" y1="0" x2="30" y2="60" gradientUnits="userSpaceOnUse">
<stop offset="0.427885" stop-color="#8C0404"/>
<stop offset="1" stop-color="#600000"/>
</linearGradient>
</defs>
</svg>
