<svg width="18" height="18" viewBox="0 0 18 18" fill="none" xmlns="http://www.w3.org/2000/svg">
<path fill-rule="evenodd" clip-rule="evenodd" d="M16.3125 3.375H1.6875C1.53832 3.375 1.39524 3.43426 1.28975 3.53975C1.18426 3.64524 1.125 3.78832 1.125 3.9375V14.0625C1.125 14.2117 1.18426 14.3548 1.28975 14.4602C1.39524 14.5657 1.53832 14.625 1.6875 14.625H16.3125C16.4617 14.625 16.6048 14.5657 16.7102 14.4602C16.8157 14.3548 16.875 14.2117 16.875 14.0625V3.9375C16.875 3.78832 16.8157 3.64524 16.7102 3.53975C16.6048 3.43426 16.4617 3.375 16.3125 3.375ZM1.6875 2.25C1.23995 2.25 0.810725 2.42779 0.494257 2.74426C0.17779 3.06072 0 3.48995 0 3.9375L0 14.0625C0 14.5101 0.17779 14.9393 0.494257 15.2557C0.810725 15.5722 1.23995 15.75 1.6875 15.75H16.3125C16.7601 15.75 17.1893 15.5722 17.5057 15.2557C17.8222 14.9393 18 14.5101 18 14.0625V3.9375C18 3.48995 17.8222 3.06072 17.5057 2.74426C17.1893 2.42779 16.7601 2.25 16.3125 2.25H1.6875Z" fill="white"/>
<path fill-rule="evenodd" clip-rule="evenodd" d="M7.87493 6.18753C7.87493 6.03834 7.93419 5.89527 8.03968 5.78978C8.14517 5.68429 8.28824 5.62503 8.43743 5.62503H14.0624C14.2116 5.62503 14.3547 5.68429 14.4602 5.78978C14.5657 5.89527 14.6249 6.03834 14.6249 6.18753C14.6249 6.33671 14.5657 6.47979 14.4602 6.58528C14.3547 6.69077 14.2116 6.75003 14.0624 6.75003H8.43743C8.28824 6.75003 8.14517 6.69077 8.03968 6.58528C7.93419 6.47979 7.87493 6.33671 7.87493 6.18753ZM6.19193 5.22678C6.24431 5.27903 6.28587 5.3411 6.31423 5.40944C6.34259 5.47778 6.35718 5.55104 6.35718 5.62503C6.35718 5.69902 6.34259 5.77228 6.31423 5.84062C6.28587 5.90896 6.24431 5.97103 6.19193 6.02328L4.50443 7.71078C4.45218 7.76316 4.39011 7.80472 4.32177 7.83308C4.25343 7.86144 4.18017 7.87603 4.10618 7.87603C4.03219 7.87603 3.95893 7.86144 3.89059 7.83308C3.82225 7.80472 3.76018 7.76316 3.70793 7.71078L3.14543 7.14828C3.09313 7.09598 3.05164 7.03389 3.02334 6.96556C2.99504 6.89723 2.98047 6.82399 2.98047 6.75003C2.98047 6.60066 3.03981 6.4574 3.14543 6.35178C3.25105 6.24616 3.39431 6.18682 3.54368 6.18682C3.69305 6.18682 3.83631 6.24616 3.94193 6.35178L4.10618 6.51715L5.39543 5.22678C5.44768 5.17439 5.50975 5.13283 5.57809 5.10448C5.64643 5.07612 5.71969 5.06152 5.79368 5.06152C5.86767 5.06152 5.94093 5.07612 6.00927 5.10448C6.07761 5.13283 6.13968 5.17439 6.19193 5.22678ZM7.87493 10.6875C7.87493 10.5383 7.93419 10.3953 8.03968 10.2898C8.14517 10.1843 8.28824 10.125 8.43743 10.125H14.0624C14.2116 10.125 14.3547 10.1843 14.4602 10.2898C14.5657 10.3953 14.6249 10.5383 14.6249 10.6875C14.6249 10.8367 14.5657 10.9798 14.4602 11.0853C14.3547 11.1908 14.2116 11.25 14.0624 11.25H8.43743C8.28824 11.25 8.14517 11.1908 8.03968 11.0853C7.93419 10.9798 7.87493 10.8367 7.87493 10.6875ZM6.19193 9.72678C6.24431 9.77903 6.28587 9.8411 6.31423 9.90944C6.34259 9.97778 6.35718 10.051 6.35718 10.125C6.35718 10.199 6.34259 10.2723 6.31423 10.3406C6.28587 10.409 6.24431 10.471 6.19193 10.5233L4.50443 12.2108C4.45218 12.2632 4.39011 12.3047 4.32177 12.3331C4.25343 12.3614 4.18017 12.376 4.10618 12.376C4.03219 12.376 3.95893 12.3614 3.89059 12.3331C3.82225 12.3047 3.76018 12.2632 3.70793 12.2108L3.14543 11.6483C3.09313 11.596 3.05164 11.5339 3.02334 11.4656C2.99504 11.3972 2.98047 11.324 2.98047 11.25C2.98047 11.1761 2.99504 11.1028 3.02334 11.0345C3.05164 10.9662 3.09313 10.9041 3.14543 10.8518C3.19773 10.7995 3.25982 10.758 3.32815 10.7297C3.39648 10.7014 3.46972 10.6868 3.54368 10.6868C3.61764 10.6868 3.69088 10.7014 3.75921 10.7297C3.82754 10.758 3.88963 10.7995 3.94193 10.8518L4.10618 11.0172L5.39543 9.72678C5.44768 9.6744 5.50975 9.63283 5.57809 9.60448C5.64643 9.57612 5.71969 9.56152 5.79368 9.56152C5.86767 9.56152 5.94093 9.57612 6.00927 9.60448C6.07761 9.63283 6.13968 9.6744 6.19193 9.72678Z" fill="white"/>
</svg>
