<svg width="20" height="18" viewBox="0 0 20 18" fill="none" xmlns="http://www.w3.org/2000/svg">
<path fill-rule="evenodd" clip-rule="evenodd" d="M18.125 3.375H1.875C1.70924 3.375 1.55027 3.43426 1.43306 3.53975C1.31585 3.64524 1.25 3.78832 1.25 3.9375V14.0625C1.25 14.2117 1.31585 14.3548 1.43306 14.4602C1.55027 14.5657 1.70924 14.625 1.875 14.625H18.125C18.2908 14.625 18.4497 14.5657 18.5669 14.4602C18.6842 14.3548 18.75 14.2117 18.75 14.0625V3.9375C18.75 3.78832 18.6842 3.64524 18.5669 3.53975C18.4497 3.43426 18.2908 3.375 18.125 3.375ZM1.875 2.25C1.37772 2.25 0.900805 2.42779 0.549175 2.74426C0.197544 3.06072 0 3.48995 0 3.9375L0 14.0625C0 14.5101 0.197544 14.9393 0.549175 15.2557C0.900805 15.5722 1.37772 15.75 1.875 15.75H18.125C18.6223 15.75 19.0992 15.5722 19.4508 15.2557C19.8025 14.9393 20 14.5101 20 14.0625V3.9375C20 3.48995 19.8025 3.06072 19.4508 2.74426C19.0992 2.42779 18.6223 2.25 18.125 2.25H1.875Z" fill="white"/>
<path fill-rule="evenodd" clip-rule="evenodd" d="M6.25 9C6.25 8.85082 6.31585 8.70774 6.43306 8.60225C6.55027 8.49676 6.70924 8.4375 6.875 8.4375H15.625C15.7908 8.4375 15.9497 8.49676 16.0669 8.60225C16.1842 8.70774 16.25 8.85082 16.25 9C16.25 9.14918 16.1842 9.29226 16.0669 9.39775C15.9497 9.50324 15.7908 9.5625 15.625 9.5625H6.875C6.70924 9.5625 6.55027 9.50324 6.43306 9.39775C6.31585 9.29226 6.25 9.14918 6.25 9ZM6.25 6.1875C6.25 6.03832 6.31585 5.89524 6.43306 5.78975C6.55027 5.68426 6.70924 5.625 6.875 5.625H15.625C15.7908 5.625 15.9497 5.68426 16.0669 5.78975C16.1842 5.89524 16.25 6.03832 16.25 6.1875C16.25 6.33668 16.1842 6.47976 16.0669 6.58525C15.9497 6.69074 15.7908 6.75 15.625 6.75H6.875C6.70924 6.75 6.55027 6.69074 6.43306 6.58525C6.31585 6.47976 6.25 6.33668 6.25 6.1875ZM6.25 11.8125C6.25 11.6633 6.31585 11.5202 6.43306 11.4148C6.55027 11.3093 6.70924 11.25 6.875 11.25H15.625C15.7908 11.25 15.9497 11.3093 16.0669 11.4148C16.1842 11.5202 16.25 11.6633 16.25 11.8125C16.25 11.9617 16.1842 12.1048 16.0669 12.2102C15.9497 12.3157 15.7908 12.375 15.625 12.375H6.875C6.70924 12.375 6.55027 12.3157 6.43306 12.2102C6.31585 12.1048 6.25 11.9617 6.25 11.8125Z" fill="white"/>
<path d="M4.375 6.75C4.72018 6.75 5 6.49816 5 6.1875C5 5.87684 4.72018 5.625 4.375 5.625C4.02982 5.625 3.75 5.87684 3.75 6.1875C3.75 6.49816 4.02982 6.75 4.375 6.75Z" fill="white"/>
<path d="M4.375 9.5625C4.72018 9.5625 5 9.31066 5 9C5 8.68934 4.72018 8.4375 4.375 8.4375C4.02982 8.4375 3.75 8.68934 3.75 9C3.75 9.31066 4.02982 9.5625 4.375 9.5625Z" fill="white"/>
<path d="M4.375 12.375C4.72018 12.375 5 12.1232 5 11.8125C5 11.5018 4.72018 11.25 4.375 11.25C4.02982 11.25 3.75 11.5018 3.75 11.8125C3.75 12.1232 4.02982 12.375 4.375 12.375Z" fill="white"/>
</svg>
